<svg width="266" height="108" viewBox="0 0 266 108" fill="none" xmlns="http://www.w3.org/2000/svg">
<path d="M3 105.059C45.2543 91.9042 90.5384 71.8161 112.922 30.9995C116.412 24.6346 122.453 8.17221 112.285 4.26173C103.363 0.829967 87.0703 6.67445 82.2584 14.4475C69.7344 34.6786 60.146 64.3663 90.7465 73.5464C124.059 83.5401 168.561 75.4672 201.623 66.8619C217.66 62.688 236.637 56.396 250.855 47.7635C260.293 42.0331 251.08 43.9439 244.064 43.9439C234.085 43.9439 211.043 43.9439 233.136 43.9439C242.112 43.9439 251.926 42.5314 259.979 40.2304C268.59 37.7703 255.541 47.9009 254.25 49.7795C250.178 55.702 245.55 65.2789 245.55 72.5915" stroke="#1C1C1C" stroke-width="5" stroke-linecap="round"/>
</svg>
