<svg width="520" height="503" viewBox="0 0 520 503" fill="none" xmlns="http://www.w3.org/2000/svg">
<path d="M253.153 41.9998C275.817 65.2331 341.294 130.65 311.326 177.375C298.855 196.817 271.864 217.327 249.423 219.706C201.232 224.815 176.151 155.178 239.641 152.31C275.248 150.701 298.054 188.336 313.824 215.259C337.07 254.944 331.899 296.947 320.601 343.225C314.863 366.727 265.26 471.484 262.291 465.276" stroke="#1C1C1C" stroke-width="5" stroke-linecap="round"/>
<path d="M257.058 470.282C258.692 464.818 273.099 422.47 270.407 427.87C266.883 434.938 264.182 442.08 259.558 449.282C254.087 457.802 251.248 466.026 244.705 474.555C238.962 482.039 291.845 458.803 300.743 453.561" stroke="#1C1C1C" stroke-width="5" stroke-linecap="round"/>
</svg>
