<svg width="50" height="50" viewBox="0 0 50 50" fill="none" xmlns="http://www.w3.org/2000/svg">
<g clip-path="url(#clip0_23_63)">
<path d="M12.1282 3.94309C12.1282 3.11721 12.1118 2.36017 12.1324 1.60404C12.1577 0.671587 12.3894 0.263872 12.8637 0.230538C13.338 0.197205 13.6004 0.554078 13.7351 1.4975C13.8388 2.21482 13.8915 2.93978 13.984 3.82969L35.4673 3.63458C35.5112 3.15914 35.5424 2.73169 35.5917 2.30669C35.6428 1.8738 35.6938 1.43939 35.7785 1.01286C35.8812 0.495534 36.1741 0.158694 36.7038 0.15387C37.2791 0.148387 37.6092 0.510869 37.7011 1.06833C37.8077 1.71394 37.8434 2.37267 37.9086 3.02574C37.9264 3.2025 37.9415 3.37967 37.9677 3.66169C38.9816 3.71717 39.9683 3.80118 40.9552 3.81982C45.3133 3.90184 47.7695 6.73449 48.6422 10.7196C49.0816 12.7259 49.177 14.8325 49.2789 16.9018C49.5156 21.713 49.688 26.529 49.8345 31.3432C49.9175 34.0406 49.898 36.7428 49.9195 39.443C49.9635 44.9018 46.0447 47.8226 42.6 48.8123C41.403 49.1674 40.1702 49.3698 38.9278 49.4154C31.6762 49.6029 24.4229 49.8121 17.1699 49.8174C13.3017 49.8204 9.45892 49.1709 5.6749 48.3055C2.77033 47.6415 0.531938 44.7932 0.185049 41.4985C0.0784746 40.4095 0.0344777 39.3147 0.0533046 38.22C0.0914789 34.4606 0.199581 30.7018 0.214934 26.9424C0.232983 22.563 0.19231 18.1832 0.152683 13.8038C0.141895 12.6027 0.0684573 11.4354 0.480905 10.2494C1.63153 6.94151 3.88672 5.1139 7.0971 4.53715C8.38735 4.30513 9.70353 4.23436 11.0077 4.08743C11.3463 4.04928 11.6805 4.00099 12.1282 3.94309ZM46.6177 16.5554C39.2426 16.8105 32.0326 17.0816 24.8212 17.3034C17.5805 17.5268 10.3371 17.7027 3.04106 17.901C3.03359 17.9937 3.00786 18.1685 3.00766 18.3433C3.00075 24.1845 2.99633 30.0257 2.9944 35.8669C2.9944 37.4356 2.98672 39.006 3.05456 40.572C3.09822 41.6753 3.49591 42.7299 4.18222 43.5625C4.86853 44.395 5.80251 44.9557 6.83048 45.1525C11.0213 45.9031 15.2093 46.5998 19.4875 46.4779C23.3895 46.3663 27.2951 46.4053 31.198 46.3218C34.3044 46.256 37.4102 46.1279 40.5133 45.979C41.8669 45.9047 43.1743 45.434 44.2893 44.6193C45.7944 43.5476 46.8059 42.1443 46.8388 40.1237C46.8644 38.5557 46.9602 36.9878 46.9372 35.4204C46.8494 29.4713 46.7256 23.5229 46.6168 17.5743C46.6119 17.2151 46.6183 16.8559 46.6183 16.5554H46.6177ZM2.76369 15.179C17.3685 14.3545 31.7417 13.8175 46.2044 13.4534C46.1214 12.676 46.1102 11.9402 45.9554 11.24C45.4764 9.08276 44.5803 7.23612 42.3552 6.59533C40.9434 6.18875 39.4957 6.30623 37.9984 6.34241C37.965 6.69022 37.9436 6.97441 37.9086 7.25664C37.8797 7.54642 37.8355 7.83432 37.7766 8.11897C37.5656 9.02379 37.1334 9.43471 36.4677 9.38581C35.7969 9.33713 35.4137 8.86197 35.3532 7.93061C35.3185 7.39903 35.3469 6.86283 35.3469 6.35515H14.1471C14.1471 6.87379 14.1564 7.26726 14.1448 7.6598C14.1444 8.20592 14.1167 8.75156 14.0618 9.29458C14.0427 9.55436 13.9311 9.79686 13.7497 9.97324C13.5682 10.1496 13.3303 10.2468 13.0838 10.2452C12.5029 10.2821 12.173 9.89439 12.0444 9.36675C11.969 8.9377 11.9364 8.50145 11.9471 8.0652C11.9284 7.57375 11.9284 7.08142 11.9183 6.4527C10.3479 6.59283 8.91139 6.57002 7.54064 6.87748C5.26077 7.3891 3.3861 8.58476 2.96473 11.2709C2.77075 12.5124 2.82676 13.7979 2.76369 15.179Z" fill="black"/>
<path d="M12.7572 41.5614C12.4527 41.5755 11.8676 41.6272 11.2826 41.625C10.0143 41.6219 9.24085 41.0154 9.00496 39.7171C8.71761 38.2119 8.78095 36.6555 9.18959 35.1818C9.26575 34.863 9.42183 34.5715 9.64135 34.3386C9.86089 34.1055 10.1358 33.9393 10.4371 33.8573C12.094 33.3476 13.8239 33.1557 15.5448 33.2901C16.4668 33.3577 17.18 33.9005 17.3912 34.9219C17.7112 36.4658 17.7971 38.0259 17.3994 39.5711C17.0655 40.8671 16.2759 41.5077 15.001 41.5575C14.3479 41.5825 13.6929 41.5614 12.7572 41.5614ZM14.2801 36.3382H11.5859L11.7 38.2338H14.2801V36.3382Z" fill="black"/>
<path d="M29.4191 36.6466C29.4191 37.0183 29.4239 37.2374 29.4191 37.4563C29.3618 39.726 28.671 40.6089 26.5458 41.0001C25.46 41.1999 24.3595 41.3322 23.2606 41.43C22.0689 41.5363 21.2689 40.9756 21.0353 39.7942C20.7396 38.2936 20.5664 36.771 20.8772 35.235C21.0958 34.1556 21.6996 33.437 22.7187 33.2765C24.0815 33.0519 25.4556 32.9107 26.834 32.8539C28.373 32.8023 29.0421 33.4611 29.2822 35.0558C29.3666 35.6304 29.3826 36.2168 29.4191 36.6466ZM26.3303 35.9585H23.3587C23.4583 36.7769 23.5475 37.5078 23.6396 38.2648C24.3081 38.196 24.8546 38.1447 25.4 38.0824C26.3875 37.9699 26.4942 37.8411 26.4473 36.7786C26.4357 36.5315 26.3778 36.2868 26.3295 35.9585H26.3303Z" fill="black"/>
<path d="M36.6627 41.1881C36.0086 41.2195 35.3534 41.2153 34.6996 41.1754C33.5146 41.0438 32.8241 40.3824 32.753 39.1579C32.6685 37.8123 32.6841 36.4621 32.7994 35.1191C32.9239 33.7458 33.5131 33.1855 34.8177 33.0772C36.0878 32.9715 37.3683 32.9414 38.6426 32.9693C39.9876 32.9989 41.2546 33.9123 41.155 35.7818C41.1065 36.6917 41.0911 37.607 40.9803 38.509C40.7683 40.2329 39.9685 40.9895 38.3158 41.1208C37.7654 41.1647 37.2139 41.1949 36.6629 41.2316L36.6627 41.1881ZM35.3857 35.621C35.4272 36.5544 35.4586 37.2618 35.4895 37.9441H37.9044C37.9666 37.2388 38.0177 36.6355 38.0785 35.9335L35.3857 35.621Z" fill="black"/>
<path d="M36.5558 29.3498C35.971 29.3847 35.3857 29.4531 34.8013 29.4472C33.3593 29.4327 32.6085 28.713 32.5367 27.2062C32.4809 26.0419 32.4809 24.8757 32.5367 23.7117C32.6077 22.2544 33.1039 21.6305 34.4678 21.4798C35.9745 21.3114 37.4894 21.242 39.0039 21.2719C40.41 21.3019 41.1591 22.1371 41.1517 23.6531C41.1363 24.8889 41.0162 26.1207 40.7925 27.3336C40.5683 28.5965 39.849 29.1836 38.621 29.2748C37.9363 29.3259 37.244 29.284 36.555 29.284L36.5558 29.3498ZM35.1035 26.395H38.0589C38.1388 25.6419 38.2098 24.9735 38.3 24.1215L35.1035 23.9726V26.395Z" fill="black"/>
<path d="M20.0487 25.4768C20.1178 24.7532 20.1614 23.9874 20.2709 23.2312C20.3954 22.376 20.799 21.7154 21.661 21.5304C23.1859 21.2029 24.7191 20.925 26.2851 21.1217C27.6525 21.2932 28.3944 21.9084 28.584 23.3499C28.7106 24.4288 28.6938 25.5214 28.5344 26.5955C28.3747 27.7578 27.5956 28.456 26.4898 28.6089C25.1554 28.7931 23.8135 28.9396 22.4707 29.0268C21.1728 29.1115 20.3871 28.4115 20.1628 27.0468C20.0811 26.547 20.0865 26.0308 20.0487 25.4768ZM25.6527 24.035L22.5573 23.8185C22.6056 24.6323 22.6427 25.2597 22.6855 25.9779L25.6523 25.6628L25.6527 24.035Z" fill="black"/>
</g>
<defs>
<clipPath id="clip0_23_63">
<rect width="50" height="50" fill="white"/>
</clipPath>
</defs>
</svg>
