<svg width="328" height="381" viewBox="0 0 328 381" fill="none" xmlns="http://www.w3.org/2000/svg">
<path fill-rule="evenodd" clip-rule="evenodd" d="M196.38 365.818C200.78 361.56 215.44 345.82 220.18 342.14C220.325 341.985 220.522 341.885 220.734 341.86C220.943 341.835 221.157 341.887 221.335 342.003C221.512 342.122 221.642 342.298 221.702 342.502C221.762 342.707 221.747 342.925 221.66 343.12C219.3 347.38 198.72 366.72 197.52 367.858C196.7 368.88 193.18 373.12 192.22 374C192.25 374.796 192.042 375.582 191.622 376.258C191.2 376.938 190.587 377.473 189.86 377.8C187.283 378.676 184.76 379.698 182.3 380.858C181.94 381.178 181.52 380.858 181.62 380.52C182.854 378.975 183.889 377.28 184.7 375.48C184.875 374.287 185.48 373.2 186.402 372.422C187.322 371.647 188.495 371.233 189.7 371.258C189.84 371 195.14 366.64 196.38 365.818ZM189.64 371.578C188.56 371.64 187.537 372.091 186.76 372.844C185.982 373.596 185.498 374.6 185.4 375.68C184.95 377.036 184.274 378.309 183.4 379.44C188.46 377.338 190.18 377.64 191.28 375.938C191.629 375.375 191.847 374.738 191.92 374.08C190.52 373.698 189.54 371.338 189.64 371.578ZM195.98 366.56C194.42 367.978 192.8 369.498 190.42 371.56C190.77 372.255 191.294 372.847 191.94 373.28L197.16 367.698C196.7 367.404 196.305 367.015 196 366.56H195.98ZM187.08 343C189.36 341.5 220.3 321.14 220.6 322.14C220.9 323.14 190.24 346.34 189.98 346.5C188.68 347.98 179.98 357.36 178.84 357.76C177.39 357.705 176.015 357.098 175 356.058C173.61 354.64 172.58 352.903 172 351C171.62 349.64 185.84 343.52 187.08 343ZM172.98 351.9C173.374 353.168 174.087 354.313 175.05 355.226C176.012 356.142 177.194 356.793 178.48 357.12C177.04 355.76 174 352.86 172.98 351.9ZM178.98 347.28C176.785 348.327 174.677 349.552 172.68 350.94C172.94 351.8 172.68 350.94 174.68 352.6C176.303 353.873 177.727 355.382 178.9 357.08C179.9 356.338 183.96 352.3 183.72 352.52C182.222 350.683 180.618 348.933 178.92 347.28H178.98ZM187.16 343.28C183.86 344.82 181.66 345.9 179.16 347.12C181.143 348.387 182.754 350.161 183.82 352.26C185.02 351.06 189.1 346.92 189.7 346.26C189.12 345.7 187.6 343.96 187.1 343.32L187.16 343.28ZM235.62 320.42C236.64 311.46 238.14 300.32 239.36 300.26C240.58 300.2 239.26 311.46 238 320.48C242 320.82 246.76 323.02 246 326.82C246.037 327.497 245.949 328.175 245.74 328.82C247.74 342.4 245.96 345.2 246.1 344.98C244.935 346.383 243.478 347.514 241.83 348.295C240.182 349.075 238.383 349.487 236.56 349.5C234.73 349.51 232.918 349.128 231.245 348.385C229.574 347.64 228.078 346.547 226.86 345.18C225.2 342.68 226.26 332.12 226.58 329.18C226.403 328.561 226.302 327.923 226.28 327.28C226.038 326.228 226.175 325.125 226.665 324.163C227.155 323.202 227.967 322.443 228.96 322.02C231.005 320.923 233.3 320.372 235.62 320.42ZM245.36 337.98C243.78 341.22 239.36 342.24 235.8 342.24C235.752 343.198 235.645 344.154 235.48 345.1C235.32 345.86 235.14 346.52 234.36 346.5C233.235 346.272 232.243 345.612 231.6 344.66C231.08 343.88 231.2 343.48 231.86 341.76C230.994 341.533 230.187 341.122 229.497 340.552C228.805 339.982 228.247 339.268 227.86 338.46C227.869 340.247 228.05 342.028 228.4 343.78C228.822 344.575 229.425 345.26 230.16 345.78C234.68 349.46 240.16 348.42 244.74 344.48C244.94 343 245.22 340.1 245.36 337.98ZM227 329.98C226.86 332.4 226.32 342.62 227.68 344.62C228.727 345.837 230.05 346.783 231.54 347.38C229.978 346.618 228.709 345.368 227.92 343.82C227.577 341.678 227.462 339.507 227.58 337.34C227.454 336.733 227.477 336.105 227.649 335.508C227.818 334.913 228.132 334.368 228.56 333.92C229.98 332.28 230.32 333.22 229.02 332.32C228.17 331.747 227.475 330.97 227 330.06V329.98ZM232.38 341.78C232.138 342.428 231.957 343.098 231.84 343.78C231.84 344.46 233.64 345.98 234.44 345.9C234.72 345.9 234.8 345.48 234.9 344.98C235.078 344.075 235.198 343.16 235.26 342.24C234.289 342.22 233.323 342.093 232.38 341.86V341.78ZM245.5 329.5C244.814 330.767 243.762 331.798 242.48 332.46C244.78 333.18 246.3 334.72 245.68 337.06C245.68 338.32 245.68 339.56 245.56 340.68C245.36 344.86 245.22 344.68 245.42 344.38C246.36 340.82 245.88 333.34 245.5 329.58V329.5ZM242.14 332.64C240.27 333.545 238.218 334.017 236.14 334.02C236.143 335.215 235.989 336.405 235.68 337.56C235.762 338.892 235.762 340.228 235.68 341.56C238.185 341.645 240.662 341.014 242.82 339.74C246 337.74 246.5 334.12 242.14 332.72V332.64ZM233.88 337.64C233.76 337.92 232.76 340.7 232.58 341.2C233.477 341.418 234.397 341.532 235.32 341.54C235.32 340.56 235.52 338.68 235.5 337.7C234.967 337.817 234.417 337.823 233.88 337.72V337.64ZM230.14 333C226.3 335.64 227.92 339.84 232.14 341.12C232.56 340.06 233.22 338.58 233.7 337.56C233.755 336.365 233.889 335.177 234.1 334C232.734 333.895 231.394 333.557 230.14 333ZM234.28 334.02L234.1 337.26C234.44 337.26 235.54 337.42 235.42 337.26C235.3 337.1 235.68 335.38 235.82 334.06C235.3 334.1 234.78 334.08 234.28 334.04V334.02ZM245.16 328.72C241.6 333.18 230.84 333.24 227.16 328.72C227.549 329.722 228.19 330.608 229.02 331.29C229.85 331.973 230.842 332.432 231.9 332.62C236.46 333.86 243.32 332.86 245.16 328.74V328.72ZM237.7 322.56C237.1 326.7 236.58 330.06 236.4 331.16C239.42 331.16 243.46 330.06 244.86 327.62C244.42 324.5 240.86 322.88 237.7 322.58V322.56ZM235.38 322.56C233.729 322.641 232.13 323.165 230.75 324.077C229.372 324.988 228.263 326.253 227.54 327.74C228.82 329.74 232.04 330.84 234.52 331.08C234.62 329.98 234.94 326.66 235.38 322.58V322.56ZM235.58 320.8C233.4 320.88 231.275 321.505 229.4 322.62C227.62 323.76 226.42 325.52 227.4 327.42C228.082 325.845 229.195 324.493 230.61 323.52C232.025 322.547 233.685 321.993 235.4 321.92L235.58 320.8ZM238 321C238 321.34 237.9 321.68 237.84 322.02C241.14 322.32 244.6 324.02 245.14 327.22C245.86 325.4 244.66 323.76 242.98 322.7C241.462 321.781 239.763 321.201 238 321ZM257.16 329.12C256.22 324.46 248.62 289.74 251.16 287.72C252.062 287.223 253.043 286.885 254.06 286.72C256.86 286.12 274.72 283.72 275.54 286.14C276.36 288.56 271.54 325.42 271.18 327.4C271.18 328.74 270.68 332.48 270.68 332.48C270.162 333.565 269.392 334.51 268.437 335.24C267.48 335.97 266.365 336.461 265.182 336.677C264 336.892 262.782 336.821 261.632 336.475C260.48 336.128 259.427 335.513 258.56 334.68C257.892 332.883 257.423 331.018 257.16 329.12ZM274.52 290.58C266.862 290.681 259.22 291.35 251.66 292.58C252.28 300.98 255.92 320.58 257.5 328.94C259.582 330.078 261.955 330.573 264.318 330.363C266.683 330.153 268.932 329.248 270.78 327.76C271 326.06 274.36 292.82 274.52 290.58ZM272.72 302.18C272.72 302.18 272.84 300.82 271.16 301.16C269.48 301.5 266.42 304.38 262.66 304.06C258.9 303.74 255.32 301.64 254.2 303.04C253.08 304.44 257.82 308.86 263.96 307.82C271 306.64 272.86 303.74 272.72 302.18ZM252.92 287.98C252.62 287.98 251.8 288.3 251.72 288.56C251.55 289.828 251.55 291.112 251.72 292.38L253.72 292C253.269 290.703 252.998 289.35 252.92 287.98ZM256.38 287.24C255.36 287.42 254.16 287.64 253.18 287.9C253.477 289.22 253.698 290.555 253.84 291.9C254.6 291.76 256.72 291.4 257.34 291.34C257.28 291.2 256.8 289.54 256.38 287.24ZM260.2 286.74C258.94 286.88 257.74 287.04 256.64 287.2C257.13 288.538 257.427 289.938 257.52 291.36L260.88 290.94C260.76 290.28 260.34 288.2 260.2 286.74ZM263.94 286.38C263.26 286.38 261.82 286.54 260.46 286.7C260.882 288.067 261.09 289.49 261.08 290.92L264.68 290.58C264.62 290.24 264.2 288.44 264 286.38H263.94ZM267.94 286.12L264.2 286.36C264.632 287.718 264.86 289.133 264.88 290.56C266.04 290.56 267.32 290.4 268.46 290.36C268.46 290.32 268 286.38 268 286.12H267.94ZM272.78 286.12C272.709 287.521 272.555 288.917 272.32 290.3H274.54C274.54 289.8 274.88 286.44 274.54 286.3C273.96 286.185 273.372 286.132 272.78 286.14V286.12ZM272.52 286.12H268.22C268.607 287.498 268.755 288.932 268.66 290.36H272.14C272.08 288.937 272.209 287.51 272.52 286.12ZM122 313.66C124.62 313.66 126.76 314.62 126.76 315.84C126.76 317.06 124.62 318.02 122 318.02C119.38 318.02 117.26 317.04 117.26 315.84C117.26 314.64 119.3 313.66 122 313.66ZM71.4398 302.14C71.4398 302.58 70.6198 302.98 69.5798 303.02C68.5398 303.06 67.5798 302.72 67.5798 302.26C67.6198 301.2 71.3998 301 71.4398 302.14Z" fill="black"/>
<path d="M90.3801 352.62C91.6615 352.62 92.7001 352.002 92.7001 351.24C92.7001 350.479 91.6615 349.86 90.3801 349.86C89.099 349.86 88.0601 350.479 88.0601 351.24C88.0601 352.002 89.099 352.62 90.3801 352.62Z" fill="black"/>
<path fill-rule="evenodd" clip-rule="evenodd" d="M190.26 285C192.26 285 193.98 285.58 193.98 286.28C193.98 286.98 192.32 287.58 190.26 287.58C188.2 287.58 186.56 287 186.56 286.28C186.56 285.56 188.22 285 190.26 285ZM62.9204 233.94C62.9204 234.44 62.6204 238.22 62.7804 243.74C62.7804 244.48 62.9204 247 62.9204 247C62.9204 247 63.1604 247.14 63.1604 247C63.1604 246.86 63.2804 244.48 63.3004 243.74C63.4204 239.14 63.1604 233.74 63.1604 233.94C63.1604 233.908 63.1481 233.878 63.1252 233.855C63.1026 233.833 63.0721 233.82 63.0404 233.82C63.0084 233.82 62.9783 233.833 62.9557 233.855C62.9332 233.878 62.9204 233.908 62.9204 233.94ZM146.22 15.4C148.72 16.08 153.14 17.5 154.74 19.56C154.798 19.6355 154.83 19.7277 154.83 19.8227C154.83 19.9177 154.802 20.0103 154.745 20.0868C154.688 20.1633 154.608 20.2197 154.518 20.2471C154.427 20.2748 154.33 20.2723 154.24 20.24C146.24 16.98 133.5 21.14 125.42 24.5C122.22 25.84 141.42 4.17995 155.22 7.57995C155.315 7.60871 155.397 7.667 155.457 7.74616C155.515 7.82551 155.547 7.92133 155.547 8.01998C155.547 8.11849 155.515 8.21449 155.457 8.29366C155.397 8.373 155.315 8.43115 155.22 8.45998C152.083 9.19565 149.003 10.1513 146 11.32C148.3 11.42 153.6 11.76 155.38 13.32C155.452 13.381 155.502 13.4611 155.528 13.551C155.554 13.6407 155.554 13.7358 155.525 13.825C155.497 13.914 155.445 13.9931 155.374 14.0527C155.3 14.1122 155.214 14.1495 155.12 14.16C152.135 14.4195 149.163 14.8333 146.22 15.4ZM152.86 8.13998C148.932 8.12566 145.068 9.14649 141.66 11.1C135.562 14.3357 130.132 18.6995 125.66 23.96C133.32 20.64 144.22 16.88 152.4 18.76C149.82 17.442 147.077 16.4735 144.24 15.88C144.137 15.8582 144.045 15.8015 143.978 15.7195C143.912 15.6377 143.875 15.5353 143.875 15.43C143.875 15.3245 143.912 15.2223 143.978 15.1403C144.045 15.0585 144.137 15.0018 144.24 14.98C147.288 14.1588 150.398 13.5968 153.54 13.3C150.474 12.5767 147.332 12.2142 144.18 12.22C144.078 12.2228 143.977 12.1913 143.895 12.1305C143.812 12.0695 143.752 11.9827 143.723 11.8838C143.697 11.7848 143.703 11.6795 143.742 11.5847C143.782 11.4897 143.852 11.4107 143.94 11.36C146.783 9.95598 149.777 8.87584 152.86 8.13998ZM17.8004 175.44C15.8113 175.7 13.8063 175.822 11.8004 175.8C11.6986 175.803 11.5983 175.773 11.5172 175.712C11.4361 175.65 11.3786 175.562 11.355 175.462C11.3313 175.363 11.343 175.258 11.3877 175.167C11.4324 175.075 11.5077 175.002 11.6004 174.96C14.0804 173.62 19.9204 172.3 22.9204 170.22L30.3404 165.26C30.3553 165.243 30.3739 165.23 30.3946 165.22C30.4153 165.21 30.4379 165.205 30.4604 165.205C30.4833 165.205 30.5055 165.21 30.5263 165.22C30.547 165.23 30.5655 165.243 30.5804 165.26C30.8004 165.52 30.3404 165.54 27.8404 168.84C26.1808 170.883 24.8328 173.162 23.8404 175.6C22.7681 178.15 21.8266 180.753 21.0204 183.4C21.0204 184 19.5804 184.44 19.9804 181.16C20.1463 179.937 20.3728 178.722 20.6604 177.52C18.5855 179.018 16.3993 180.355 14.1204 181.52C14.0383 181.567 13.9437 181.588 13.8495 181.58C13.7553 181.57 13.6659 181.533 13.5939 181.472C13.5215 181.41 13.4703 181.328 13.4463 181.237C13.4223 181.145 13.4273 181.048 13.4604 180.96C14.4833 178.823 15.9652 176.938 17.8004 175.44ZM29.1204 166.58C19.3204 173.48 23.7004 170.98 13.9204 174.88C15.7921 174.875 17.6524 174.593 19.4404 174.04L19.6604 173.86C20.1004 173.52 20.8804 174.2 20.0204 174.76C18.0983 176.272 16.4008 178.05 14.9804 180.04C17.1953 178.907 19.2695 177.517 21.1604 175.9C21.231 175.818 21.3277 175.763 21.4343 175.747C21.5408 175.728 21.6499 175.748 21.743 175.803C21.8357 175.858 21.9066 175.945 21.9426 176.047C21.9786 176.148 21.9783 176.258 21.9404 176.36C21.5266 177.868 21.1932 179.397 20.9404 180.94C22.5215 175.585 25.3212 170.67 29.1204 166.58ZM30.4804 157.24C33.8721 151.745 38.7175 147.294 44.4804 144.38C52.2404 140.72 55.0804 144.62 51.5604 151.62C48.563 157.212 44.2783 162.01 39.0604 165.62C39.6481 167.672 39.8844 169.808 39.7604 171.94C39.2404 173.94 29.4604 177.3 28.1204 177.14C28.019 177.135 27.9204 177.103 27.8361 177.047C27.7517 176.99 27.6841 176.912 27.6404 176.82C27.4404 176.36 27.9004 175.94 28.3404 175.6C30.7823 173.817 33.3412 172.2 36.0004 170.76L35.8604 167.44L34.7204 168C34.6462 168.02 34.5677 168.02 34.4935 167.998C34.4197 167.978 34.3528 167.937 34.3004 167.88L28.0004 161.74C27.971 161.707 27.9546 161.665 27.9546 161.62C27.9546 161.575 27.971 161.533 28.0004 161.5C28.0004 161.5 28.2004 161.08 28.6204 160.34H25.1204C24.6004 161.42 21.1204 168.46 20.0004 168.94C19.9201 168.978 19.8313 168.998 19.7423 168.995C19.6528 168.993 19.5652 168.97 19.487 168.927C19.4084 168.883 19.3419 168.822 19.2921 168.748C19.2423 168.673 19.2106 168.588 19.2004 168.5C18.9604 167 21.9204 157.22 23.8804 156.64C26.0568 156.44 28.251 156.589 30.3804 157.08C30.4121 157.093 30.4386 157.115 30.4564 157.144C30.4746 157.172 30.483 157.206 30.4804 157.24ZM38.6204 165.76C37.8266 166.29 37.0055 166.777 36.1604 167.22L36.5804 171C36.5804 171.3 36.5804 171.12 32.5804 173.76C31.3604 174.54 30.1204 175.36 29.2804 175.98C32.3153 175.143 35.2419 173.955 38.0004 172.44C38.2204 172.3 38.8004 171.9 38.8804 171.64C39.0917 169.678 39.0041 167.695 38.6204 165.76ZM29.8004 159.22C29.0204 160.38 28.5404 161.22 28.3604 161.56L34.5604 167.3C35.2804 166.94 36.0604 166.5 36.8804 166C34.2972 163.985 31.9252 161.713 29.8004 159.22ZM30.3004 157.52C28.2375 157.227 26.1433 157.227 24.0804 157.52C23.3804 157.76 22.1804 160.94 21.9604 161.52C21.2543 163.403 20.6863 165.335 20.2604 167.3C21.4604 165.52 24.7404 159.7 24.6004 159.98C24.6277 159.923 24.6703 159.877 24.7237 159.845C24.7768 159.813 24.8383 159.798 24.9004 159.8L28.8004 160C29.2004 159.24 29.6804 158.46 30.3004 157.52ZM41.3204 147.14C36.787 150.217 32.9343 154.193 30.0004 158.82C32.6561 160.858 35.0837 163.178 37.2404 165.74C41.8041 162.732 45.7212 158.843 48.7604 154.3L41.3204 147.14ZM37.7404 152.16C37.3557 152.563 37.0543 153.038 36.8528 153.558C36.6517 154.077 36.555 154.632 36.5681 155.189C36.5808 155.746 36.7033 156.295 36.9288 156.805C37.1539 157.315 37.4772 157.775 37.8804 158.16C38.2837 158.545 38.7586 158.847 39.2783 159.048C39.7983 159.248 40.3521 159.345 40.9095 159.333C41.4666 159.32 42.0157 159.197 42.5255 158.972C43.0353 158.747 43.4957 158.423 43.8804 158.02C44.6575 157.206 45.0793 156.116 45.0532 154.991C45.027 153.866 44.5546 152.797 43.7404 152.02C42.9263 151.243 41.8368 150.821 40.7113 150.847C39.5863 150.873 38.5175 151.346 37.7404 152.16ZM43.3204 152.48C43.9641 153.141 44.3244 154.027 44.3244 154.95C44.3244 155.873 43.9641 156.759 43.3204 157.42C42.6892 158.005 41.8583 158.328 40.9975 158.322C40.1364 158.315 39.3103 157.982 38.6877 157.386C38.0648 156.792 37.6924 155.982 37.6466 155.122C37.6008 154.262 37.8844 153.417 38.4404 152.76C39.0593 152.09 39.9139 151.687 40.8241 151.635C41.7343 151.582 42.6292 151.885 43.3204 152.48ZM42.2204 153.62C42.4928 153.902 42.6761 154.259 42.7473 154.645C42.8183 155.031 42.7746 155.429 42.6212 155.79C42.4677 156.151 42.2113 156.46 41.8841 156.676C41.5564 156.893 41.1728 157.008 40.7804 157.008C40.3881 157.008 40.0041 156.893 39.6768 156.676C39.3499 156.46 39.0935 156.151 38.9401 155.79C38.7863 155.429 38.7423 155.031 38.8139 154.645C38.8848 154.259 39.0681 153.902 39.3404 153.62C39.527 153.426 39.7506 153.273 39.9983 153.167C40.2455 153.062 40.5117 153.008 40.7804 153.008C41.0492 153.008 41.3153 153.062 41.5626 153.167C41.8103 153.273 42.0339 153.426 42.2204 153.62Z" fill="black"/>
<path fill-rule="evenodd" clip-rule="evenodd" d="M105.54 17.78C105.357 17.6249 105.214 17.4285 105.121 17.2074C105.028 16.986 104.99 16.746 105.008 16.507C105.026 16.2679 105.1 16.0364 105.224 15.8316C105.349 15.6265 105.52 15.454 105.724 15.328C105.928 15.2019 106.159 15.1259 106.398 15.1062C106.637 15.0865 106.878 15.1236 107.1 15.2145C107.322 15.3054 107.519 15.4474 107.675 15.6292C107.832 15.8109 107.943 16.027 108 16.26C108.014 16.5117 107.969 16.7632 107.868 16.9942C107.766 17.225 107.612 17.4289 107.417 17.5887C107.222 17.7485 106.992 17.86 106.746 17.9142C106.499 17.9684 106.244 17.9634 106 17.9C106 18.1 105.7 20.32 105.1 22.92C107.879 22.9305 110.562 23.9384 112.66 25.76C112.69 25.7042 112.74 25.6616 112.8 25.64C128.4 23.44 130.02 28.6 125 32.74C119.36 37.4 102.04 42.74 92.4797 41.48C89.9797 41.18 86.0997 40.02 86.0597 37.66C86.0597 34.62 94.2001 31.24 94.5201 31.08C95.8237 27.7781 98.343 25.1012 101.56 23.6C100.14 22.06 98.6601 19.82 98.3201 19.44C96.6201 20.36 95.0201 18.18 96.3201 17.06C96.6062 16.8089 96.9797 16.6797 97.3601 16.7C97.6772 16.6357 98.0062 16.6802 98.2953 16.8262C98.5841 16.9722 98.815 17.2112 98.9513 17.5047C99.0877 17.798 99.1211 18.1289 99.0466 18.4437C98.9721 18.7585 98.7935 19.039 98.5397 19.24C99.2128 19.7247 99.8124 20.304 100.32 20.96C103.2 24.44 100.76 23.24 104.32 22.96C104.426 21.176 104.838 19.4237 105.54 17.78ZM94.1797 31.64C92.3797 32.52 86.5797 35.64 86.6597 37.64C86.6597 38.3 87.2397 38.96 88.2997 39.54C95.7397 43.54 117.88 37.26 124.3 32.04C127.96 29.1 127.58 26.28 120.62 25.78C117.951 25.659 115.277 25.7392 112.62 26.02C112.12 27.18 107.3 36.3 94.1797 31.64ZM92.1797 36.4C92.0928 36.585 92.0455 36.7865 92.0412 36.9909C92.0368 37.1952 92.0757 37.3985 92.1546 37.5869C92.2342 37.7752 92.3521 37.945 92.5008 38.0854C92.6499 38.2254 92.8266 38.3327 93.0201 38.4C93.2117 38.4476 93.411 38.457 93.6062 38.4276C93.8019 38.3981 93.9892 38.3305 94.1582 38.2283C94.3277 38.1261 94.4746 37.9912 94.5917 37.832C94.7088 37.6727 94.7928 37.492 94.8397 37.3C94.9593 36.9472 94.9335 36.5614 94.7684 36.2276C94.6033 35.8938 94.3124 35.6392 93.9601 35.52C93.607 35.4007 93.2215 35.4261 92.8877 35.5912C92.5539 35.7563 92.2993 36.0472 92.1797 36.4ZM93.8201 35.84C94.7001 36.24 94.0997 37.84 93.2597 37.6C92.4197 37.36 92.8601 35.66 93.8201 35.84ZM107.62 34.7C107.478 34.5945 107.315 34.5225 107.142 34.4883C106.969 34.4545 106.791 34.4596 106.62 34.504C106.449 34.548 106.29 34.6298 106.155 34.7432C106.02 34.857 105.912 34.9992 105.84 35.16C105.686 35.5185 105.671 35.921 105.796 36.2905C105.922 36.6596 106.18 36.9694 106.52 37.16C106.682 37.2607 106.865 37.3236 107.055 37.3443C107.245 37.365 107.437 37.3429 107.618 37.2792C107.798 37.216 107.962 37.113 108.097 36.9785C108.232 36.8436 108.336 36.68 108.4 36.5C108.512 36.1563 108.495 35.7836 108.351 35.4523C108.207 35.1207 107.947 34.853 107.62 34.7ZM107.46 34.98C108.26 35.58 107.74 36.98 106.9 36.5C106.06 36.02 106.5 34.58 107.46 35V34.98ZM118.16 29.26C118.044 29.1512 117.904 29.0698 117.752 29.0225C117.6 28.9749 117.44 28.9621 117.282 28.985C117.124 29.0083 116.974 29.0665 116.842 29.1556C116.71 29.2447 116.6 29.3625 116.52 29.5C116.365 29.8203 116.333 30.1858 116.428 30.5283C116.524 30.8709 116.742 31.1665 117.04 31.36C117.173 31.4687 117.329 31.5461 117.496 31.5872C117.663 31.6283 117.837 31.6316 118.005 31.5974C118.174 31.5629 118.332 31.4912 118.47 31.388C118.607 31.2847 118.72 31.1523 118.8 31C118.874 30.844 118.915 30.6749 118.923 30.5025C118.931 30.3301 118.904 30.1578 118.845 29.996C118.785 29.8338 118.694 29.6854 118.576 29.5589C118.459 29.4327 118.317 29.3309 118.16 29.26ZM118 29.52C118.6 30.08 118.18 31.2 117.48 30.72C116.78 30.24 117.18 29.12 118 29.52ZM97.3601 17C97.6186 17.0096 97.8644 17.1152 98.0495 17.2965C98.2343 17.4777 98.3451 17.7214 98.3597 17.98C98.3495 18.2117 98.2502 18.4304 98.0822 18.5907C97.9146 18.7509 97.6921 18.8402 97.4601 18.84C97.3393 18.8465 97.2182 18.8292 97.1041 18.789C96.9899 18.7489 96.8848 18.6867 96.7946 18.6059C96.6128 18.4427 96.503 18.214 96.4899 17.97C96.4764 17.726 96.5608 17.4867 96.7241 17.3047C96.887 17.1229 97.1161 17.0132 97.3601 17ZM106.22 15.3C106.479 15.3096 106.724 15.4152 106.91 15.5965C107.094 15.7777 107.205 16.0214 107.22 16.28C107.21 16.5117 107.11 16.7304 106.942 16.8907C106.775 17.0509 106.552 17.1402 106.32 17.14C106.191 17.165 106.058 17.1622 105.93 17.1316C105.802 17.101 105.683 17.0434 105.579 16.9625C105.475 16.8817 105.39 16.7797 105.329 16.6632C105.268 16.5467 105.233 16.4185 105.226 16.2874C105.219 16.156 105.239 16.0249 105.287 15.9024C105.335 15.78 105.408 15.6692 105.503 15.5776C105.597 15.4859 105.71 15.4154 105.834 15.371C105.957 15.3265 106.089 15.3092 106.22 15.32V15.3ZM204.92 114.6C205.858 112.861 207.397 111.523 209.25 110.835C211.102 110.147 213.142 110.157 214.988 110.861C216.834 111.567 218.36 112.919 219.282 114.667C220.205 116.415 220.46 118.438 220 120.36C222.942 121.791 225.752 123.478 228.4 125.4C229.56 126.44 229.4 127.4 227.34 127.26C223.763 126.941 220.225 126.271 216.78 125.26C215.677 126.065 214.39 126.58 213.037 126.758C211.683 126.935 210.307 126.769 209.034 126.275C207.76 125.781 206.632 124.975 205.754 123.931C204.874 122.887 204.27 121.638 204 120.3C202 119.34 195.06 115.76 194.64 113.74C194.5 113 195.22 112.66 195.98 112.58C199.054 112.741 202.075 113.425 204.92 114.6ZM219.84 120.78C219.45 122.139 218.712 123.373 217.7 124.36C221.098 125.34 224.58 126.009 228.1 126.36C226.96 124.88 221.48 121.72 219.84 120.78ZM204.72 120.6C205.045 121.725 205.623 122.761 206.414 123.626C207.203 124.491 208.182 125.162 209.272 125.588C210.363 126.013 211.538 126.182 212.705 126.08C213.872 125.978 214.998 125.608 216 125C212.137 123.815 208.365 122.344 204.72 120.6ZM217.08 124.18C218.485 122.928 219.38 121.201 219.595 119.331C219.808 117.461 219.327 115.577 218.24 114.04C217.67 113.2 216.935 112.486 216.08 111.94C215.223 111.394 214.267 111.029 213.265 110.866C212.263 110.703 211.238 110.746 210.255 110.993C209.27 111.239 208.347 111.684 207.54 112.3C206.454 113.1 205.597 114.171 205.057 115.407C204.515 116.643 204.31 117.999 204.46 119.34C208.53 121.29 212.75 122.909 217.08 124.18ZM204.72 115C203.24 114.52 196.72 112.64 195.54 113.56C196 115 202.5 118.38 204 119C203.887 117.627 204.134 116.247 204.72 115ZM59.7197 238.26C62.1346 239.847 64.6764 241.232 67.3197 242.4C67.3455 242.408 67.3732 242.407 67.3982 242.398C67.4233 242.388 67.4444 242.37 67.4582 242.347C67.4721 242.323 67.4779 242.297 67.4746 242.27C67.4713 242.243 67.459 242.219 67.4397 242.2C65.0222 240.617 62.4808 239.233 59.8397 238.06C59.8142 238.052 59.7866 238.053 59.7615 238.062C59.7361 238.072 59.715 238.09 59.7012 238.113C59.6873 238.135 59.6815 238.163 59.6852 238.19C59.6884 238.217 59.7004 238.242 59.7197 238.26ZM16.3597 62.66C16.3597 57.82 16.6397 53.26 16.6397 53.46C16.6528 53.42 16.6782 53.385 16.7124 53.3603C16.7466 53.3356 16.7877 53.3225 16.8299 53.3225C16.8721 53.3225 16.9128 53.3356 16.947 53.3603C16.9812 53.385 17.0066 53.42 17.0197 53.46C17.0197 54.92 17.2797 56.22 17.2997 62.98C18.7779 62.0181 20.3066 61.1367 21.8797 60.34C21.9008 60.3269 21.9241 60.3181 21.9484 60.3138C21.9732 60.3098 21.9982 60.3105 22.0222 60.316C22.0462 60.3218 22.0692 60.332 22.0895 60.3465C22.1095 60.3607 22.1266 60.3789 22.1397 60.4C22.1528 60.421 22.1619 60.4443 22.1659 60.469C22.1702 60.493 22.1692 60.5181 22.1637 60.5425C22.1582 60.5665 22.1477 60.5894 22.1335 60.6094C22.119 60.6298 22.1008 60.6469 22.0797 60.66C20.7997 61.7101 19.4641 62.6916 18.0797 63.6C20.9597 65.18 21.5397 65.6 22.9197 66.44C24.2997 67.28 24.3197 67.28 24.2197 67.48C24.1197 67.68 24.0197 67.6 22.6397 66.96C21.2597 66.32 20.3197 65.92 17.2997 64.26C17.2997 71.92 16.9997 75.42 16.9997 75.22C16.9866 75.26 16.9612 75.2949 16.927 75.3196C16.8928 75.3443 16.8521 75.3574 16.8099 75.3574C16.7677 75.3574 16.7266 75.3443 16.6924 75.3196C16.6582 75.2949 16.6328 75.26 16.6197 75.22C16.6197 73.78 16.3397 72.52 16.3397 64.72C14.7793 65.7538 13.1637 66.7018 11.4997 67.56C11.4786 67.573 11.4553 67.5821 11.431 67.5861C11.4066 67.5901 11.3815 67.5894 11.3575 67.584C11.3332 67.5781 11.3102 67.568 11.2902 67.5534C11.2702 67.5392 11.2528 67.521 11.2397 67.5C11.2266 67.4789 11.2179 67.4556 11.2139 67.4312C11.2095 67.4069 11.2102 67.3818 11.2161 67.3574C11.2215 67.3334 11.2317 67.3105 11.2462 67.2905C11.2604 67.2701 11.2786 67.253 11.2997 67.24C12.8746 65.9505 14.5241 64.7549 16.2397 63.66C14.6197 62.76 14.0997 62.44 12.8197 61.66C11.5397 60.88 11.1197 60.64 11.2197 60.42C11.2575 60.3923 11.303 60.3774 11.3499 60.3774C11.3964 60.3774 11.4422 60.3923 11.4797 60.42C13.9997 61.36 15.4997 62.22 16.3597 62.66Z" fill="black"/>
<path fill-rule="evenodd" clip-rule="evenodd" d="M59.8404 242.4C62.0807 241.225 64.2036 239.838 66.1804 238.26C66.3204 238.26 66.1804 237.98 66.0604 238.06C63.8215 239.237 61.6985 240.623 59.7204 242.2C59.6004 242.28 59.7204 242.48 59.8404 242.4ZM121.84 121.8C121.84 127.42 122.04 128.32 122.04 129.34C122.032 129.361 122.029 129.384 122.031 129.407C122.033 129.43 122.041 129.451 122.054 129.47C122.067 129.49 122.084 129.505 122.105 129.515C122.125 129.526 122.147 129.532 122.17 129.532C122.193 129.532 122.216 129.526 122.236 129.515C122.256 129.505 122.273 129.49 122.286 129.47C122.299 129.451 122.307 129.43 122.309 129.407C122.312 129.384 122.309 129.361 122.3 129.34C122.3 129.54 122.52 126.3 122.52 121.46C124.071 122.337 125.666 123.131 127.3 123.84C127.46 123.84 127.6 123.68 127.44 123.6C126.032 122.659 124.577 121.791 123.08 121C124.071 120.388 125.026 119.72 125.94 119C125.967 118.979 125.986 118.95 125.993 118.916C125.999 118.882 125.993 118.847 125.976 118.818C125.959 118.789 125.932 118.767 125.899 118.756C125.867 118.745 125.832 118.747 125.8 118.76C125.8 118.76 124.16 119.6 122.52 120.66C122.52 115.68 122.32 114.66 122.32 113.82C122.32 113.783 122.305 113.747 122.279 113.721C122.253 113.695 122.217 113.68 122.18 113.68C122.143 113.68 122.108 113.695 122.081 113.721C122.055 113.747 122.04 113.783 122.04 113.82C122.04 113.62 121.86 117.04 121.84 120.44C121.26 120.14 120.1 119.52 118.34 118.76C118.18 118.76 118.04 118.92 118.2 119C118.36 119.08 119.68 120.02 121.76 121.16C120.529 121.906 119.34 122.72 118.2 123.6C118.04 123.6 118.2 123.94 118.34 123.84C118.14 123.94 119.64 123.2 121.84 121.8ZM172.12 263.12C169.94 262.22 146.94 260.8 146.74 260.78C146.12 260.78 141.64 261.68 141.34 261.76C141.04 261.84 141.34 261.76 141.34 261.86C143.088 262.658 144.893 263.327 146.74 263.86C148.74 264.28 152.74 264.32 171.7 266.36C172.06 266.36 172.82 265.12 172.38 263.32C172.36 263.26 172.22 263.18 172.12 263.12ZM146.64 263.66L143.62 262.6C143.737 262.44 143.813 262.255 143.84 262.06C143.868 261.865 143.848 261.665 143.78 261.48C144.758 261.283 145.747 261.142 146.74 261.06C147.22 261.54 145.94 261.72 146.9 262.34C147.02 262.34 147.04 262.34 146.9 262.48C146.85 262.505 146.805 262.54 146.768 262.583C146.73 262.627 146.703 262.677 146.687 262.732C146.67 262.785 146.663 262.843 146.67 262.898C146.675 262.955 146.693 263.01 146.72 263.06C146.88 263.34 147.06 263.46 146.64 263.66ZM146.88 263.66C147.44 263.36 146.68 262.9 147.06 262.66C147.9 262.08 143.9 262.24 170.32 264.66C170.265 265.072 170.357 265.49 170.58 265.84L146.88 263.66ZM170.34 264.5C169.44 264.4 147.3 262.3 147.16 262.18C147.02 262.06 146.66 261.96 146.84 261.72C147.02 261.48 147.12 261.26 146.84 261.02C147.04 261.02 166.66 262.58 170.84 263.28C170.548 263.638 170.373 264.078 170.34 264.54V264.5ZM171.62 265.88C171.48 265.74 171.46 265.78 171.32 265.38C171.18 264.98 171.32 263.62 171.96 263.62C172.058 264.007 172.078 264.408 172.02 264.803C171.962 265.198 171.827 265.578 171.62 265.92V265.88ZM185.52 206.86C185.498 206.787 185.46 206.718 185.408 206.662C185.357 206.605 185.293 206.56 185.222 206.53C185.152 206.5 185.075 206.487 184.997 206.492C184.92 206.495 184.845 206.515 184.778 206.552C184.71 206.588 184.652 206.638 184.605 206.7C184.56 206.762 184.528 206.834 184.513 206.908C184.498 206.983 184.5 207.062 184.518 207.137C184.537 207.212 184.572 207.28 184.62 207.34C184.82 207.66 185.02 207.98 185.24 208.3C185.27 208.368 185.315 208.43 185.372 208.48C185.428 208.53 185.495 208.567 185.568 208.588C185.64 208.61 185.717 208.617 185.79 208.605C185.865 208.595 185.937 208.567 186 208.527C186.063 208.485 186.117 208.43 186.157 208.367C186.197 208.303 186.223 208.232 186.232 208.157C186.242 208.082 186.235 208.005 186.212 207.934C186.19 207.862 186.152 207.795 186.1 207.74C186 207.46 185.7 207.16 185.52 206.86ZM160.6 164.38C160.72 163.44 161.82 158.66 161.4 158.56C161.377 158.55 161.352 158.547 161.327 158.547C161.301 158.548 161.277 158.555 161.253 158.567C161.23 158.578 161.21 158.594 161.195 158.614C161.178 158.634 161.167 158.655 161.16 158.68C160.593 160.077 160.158 161.522 159.86 163C159.747 163.52 159.673 164.048 159.64 164.58C159.643 164.662 159.667 164.742 159.708 164.812C159.75 164.882 159.81 164.938 159.88 164.98C160.382 165.235 160.923 165.405 161.48 165.48C161.92 165.48 163.48 165.6 163.3 165.18C163.12 164.76 162.88 165.52 160.6 164.38ZM169.58 161.48V160.44C169.58 159.72 168.58 159.62 168.56 160.44V161.58C168.555 161.655 168.565 161.732 168.593 161.802C168.62 161.874 168.662 161.937 168.715 161.99C168.77 162.043 168.835 162.083 168.907 162.108C168.978 162.133 169.055 162.143 169.13 162.135C169.205 162.128 169.278 162.103 169.343 162.065C169.408 162.027 169.465 161.975 169.507 161.912C169.55 161.85 169.578 161.778 169.592 161.705C169.605 161.63 169.6 161.554 169.58 161.48ZM170.9 167C170.26 169.4 169.4 169.76 168.36 169.88C168.147 169.897 167.933 169.897 167.72 169.88C167.673 169.863 167.62 169.868 167.575 169.89C167.53 169.914 167.497 169.952 167.48 170C167.465 170.048 167.468 170.1 167.49 170.145C167.513 170.19 167.553 170.223 167.6 170.24C169.34 171.24 171.72 170.02 171.28 167C171.267 166.96 171.242 166.925 171.208 166.9C171.173 166.875 171.132 166.862 171.09 166.862C171.048 166.862 171.007 166.875 170.973 166.9C170.938 166.925 170.913 166.96 170.9 167ZM178.42 192C178.408 191.935 178.383 191.872 178.348 191.815C178.312 191.76 178.265 191.71 178.21 191.674C178.155 191.635 178.093 191.608 178.028 191.594C177.963 191.58 177.897 191.578 177.83 191.59C177.765 191.602 177.702 191.627 177.645 191.662C177.59 191.698 177.541 191.745 177.503 191.8C177.465 191.855 177.438 191.917 177.423 191.982C177.41 192.047 177.408 192.115 177.42 192.18C177.505 192.552 177.613 192.92 177.74 193.28C177.747 193.357 177.77 193.432 177.808 193.498C177.847 193.565 177.898 193.622 177.962 193.667C178.025 193.71 178.098 193.74 178.173 193.752C178.25 193.765 178.327 193.76 178.402 193.74C178.475 193.718 178.543 193.68 178.601 193.63C178.66 193.578 178.705 193.517 178.737 193.445C178.767 193.375 178.781 193.298 178.778 193.22C178.775 193.143 178.755 193.068 178.72 193C178.6 192.66 178.5 192.32 178.42 192ZM158.74 158.5C158.755 158.425 158.753 158.347 158.735 158.272C158.717 158.197 158.682 158.128 158.632 158.068C158.583 158.008 158.522 157.962 158.453 157.928C158.383 157.895 158.307 157.878 158.23 157.878C158.153 157.878 158.077 157.895 158.008 157.928C157.938 157.962 157.877 158.008 157.828 158.068C157.78 158.128 157.745 158.197 157.727 158.272C157.707 158.347 157.705 158.425 157.72 158.5V159.64C157.705 159.715 157.707 159.794 157.727 159.868C157.745 159.942 157.78 160.012 157.828 160.072C157.877 160.13 157.938 160.178 158.008 160.212C158.077 160.245 158.153 160.262 158.23 160.262C158.307 160.262 158.383 160.245 158.453 160.212C158.522 160.178 158.583 160.13 158.632 160.072C158.682 160.012 158.717 159.942 158.735 159.868C158.753 159.794 158.755 159.715 158.74 159.64C158.717 159.26 158.717 158.88 158.74 158.5ZM316.84 242.28C316.84 242.28 316.72 242.3 316.84 242.28V242.28Z" fill="black"/>
<path fill-rule="evenodd" clip-rule="evenodd" d="M326.82 241C324.6 239.92 319.32 240.82 316.82 241.34C315.902 240.313 314.743 239.532 313.448 239.065C312.154 238.597 310.762 238.458 309.4 238.66C307.16 239.22 306.62 241.98 306.72 244.3C305.28 244.04 303.72 243.86 302.28 243.72C302.4 243.28 302.78 242.66 302.66 242.22C302.595 242.063 302.497 241.921 302.374 241.807C302.248 241.69 302.1 241.603 301.938 241.55C301.777 241.497 301.607 241.478 301.437 241.498C301.268 241.517 301.105 241.572 300.96 241.66C300.562 241.978 300.194 242.333 299.86 242.72C299.86 242.02 300.44 240.9 299.74 240.72C299.04 240.54 296.86 242.5 296.24 243.2C291.647 242.695 287.014 242.695 282.42 243.2C276.407 243.632 270.74 246.175 266.42 250.38C290.74 222.38 301.42 203.14 301.14 179.16C300.86 155.18 272.36 143.74 260.64 143.44C249.26 143.16 237.52 149.44 236.92 149.44C226.64 151.44 199.68 148.46 194.02 150.82C194.09 148.285 193.635 145.764 192.685 143.414C191.735 141.063 190.31 138.934 188.5 137.16C185.26 133.62 180.08 132.3 174.82 132.52C167.32 132.86 159.88 136 156.16 142.52C154.927 144.631 154.202 147 154.04 149.44C154.04 150.06 152.76 160.26 156.04 167.98C156.78 169.935 157.963 171.692 159.497 173.11C161.032 174.53 162.874 175.573 164.88 176.16C161.647 180.447 158.682 184.928 156 189.58C155.38 190.88 155.84 191.58 156.74 191.58C157.64 191.58 158.84 191.34 159.68 191.38C158.36 195 155 204.44 154.18 208.18C150.068 210.948 146.365 214.281 143.18 218.08C137.18 224.96 134.38 232.42 127.58 236.4L125.58 237.52C128.3 229.26 133.44 212.86 131.58 212.84C129.72 212.82 125.2 228.6 122.32 239.3C119.24 241 117.68 242.08 116.6 245.44C116.248 246.29 116.067 247.2 116.067 248.12C116.067 249.04 116.248 249.95 116.6 250.8C116.728 251.072 116.925 251.308 117.17 251.483C117.415 251.658 117.701 251.767 118 251.8C118.24 251.8 118.24 251.58 117.58 253.04C117.266 253.13 116.968 253.272 116.7 253.46L107.08 247.6C106.86 247.6 109.62 247.22 51.0801 254.84C49.9801 254.02 48.8201 253.16 47.6201 252.22C18.8601 229.84 112.78 205.82 120.3 175.24C127.04 147.86 88.3001 142.34 96.9001 116.62C105.5 90.9 161.74 98.1 214.68 95.02C267.62 91.94 288.68 38.5 250.14 10.66C211.6 -17.1801 172 22.36 162.64 32.46C153.28 42.56 142.48 55.78 112.16 54.46C81.8405 53.14 42.1601 58.28 27.6201 102.24C20.6201 123.28 26.9001 138.04 36.2401 149.74C39.3685 146.557 43.2376 144.2 47.5001 142.88C49.9801 142.28 52.4401 142.6 53.1401 145.06C54.4601 149.58 48.9801 156.6 45.8001 160.1C53.8001 167.82 61.4801 174.34 64.5001 181.08C69.5401 192.4 45.3801 200.78 35.1801 207.4C24.9801 214.02 9.4001 234.5 18.9601 254.38C19.6783 255.903 20.4797 257.385 21.3601 258.82C1.0801 261.44 0.380101 261.44 0.180283 261.56C-0.0197174 261.68 0.0402826 262.04 0.180283 262.24H0.0402832C1.8401 264.24 54.8201 339.96 87.3401 378.44L87.9201 378.56C94.9601 375.178 222.72 313.16 215.92 309.34C215.92 309.34 122.52 257.2 120.3 255.88C120.648 255.283 120.948 254.661 121.2 254.02C121.311 254.012 121.415 253.965 121.496 253.888C121.576 253.812 121.627 253.71 121.64 253.6V252.52C122.88 252.94 124.82 251.74 125.82 250.84C127.82 249 130.82 243.88 133.04 243.2C137.467 242.097 141.834 240.761 146.12 239.2C163.94 232.52 171.34 225.04 179.1 212.96C180.383 211.073 181.475 209.063 182.36 206.96C186.888 211.85 192.394 215.735 198.52 218.36C182.36 237.02 184.9 248.86 190.74 255.32C196.08 261.22 204.74 259.14 206.16 258.7C206.16 267.58 209.16 287.3 210.16 289.28C210.68 290.42 208.94 291.28 208.58 293.54C208.392 294.688 208.54 295.867 209.008 296.932C209.477 297.998 210.245 298.903 211.22 299.54C213.44 300.94 217.22 301.02 215.74 298.8C215.247 298.165 214.69 297.583 214.08 297.06C214.66 297.24 215.3 297.48 216.08 297.76C223.38 300.62 224.34 301.92 225.68 301.54C225.86 301.498 226.028 301.417 226.174 301.303C226.318 301.19 226.437 301.045 226.52 300.88C226.68 300.99 226.862 301.067 227.052 301.101C227.243 301.137 227.438 301.132 227.628 301.087C227.817 301.041 227.994 300.957 228.147 300.838C228.302 300.72 228.428 300.57 228.52 300.4C228.588 300.27 228.625 300.127 228.625 299.98C228.625 299.833 228.588 299.69 228.52 299.56C228.774 299.133 228.86 298.627 228.76 298.14C228.76 296.34 221.88 290.46 220.48 289.3C220.68 287.3 221.74 282.86 224.38 271.06C238.02 286.44 283.88 265.06 286.38 263.98C286.8 264.42 303.74 257.2 305.7 256.16C305.5 256.16 327.18 246.36 328 242.76C328 241.92 327.46 241.38 326.82 241ZM249.46 59.92C249.792 59.9302 250.105 60.0706 250.332 60.3098C250.56 60.5495 250.685 60.8691 250.68 61.2C250.685 61.3644 250.658 61.5284 250.6 61.6822C250.54 61.8357 250.452 61.9764 250.338 62.0957C250.225 62.2146 250.088 62.3102 249.938 62.376C249.787 62.4418 249.625 62.4771 249.46 62.48C249.295 62.4771 249.132 62.4422 248.98 62.3764C248.828 62.3106 248.69 62.2157 248.575 62.0968C248.46 61.9778 248.37 61.8375 248.308 61.6837C248.248 61.5298 248.218 61.3651 248.22 61.2C248.218 61.0346 248.248 60.8698 248.308 60.716C248.37 60.5622 248.46 60.4218 248.575 60.3029C248.69 60.184 248.828 60.0891 248.98 60.0233C249.132 59.9575 249.295 59.9226 249.46 59.92ZM238.16 25C238.322 24.9998 238.482 25.0321 238.632 25.0947C238.782 25.1571 238.917 25.2488 239.03 25.3643C239.143 25.4796 239.234 25.6165 239.294 25.7668C239.354 25.9171 239.383 26.078 239.38 26.24C239.402 26.4118 239.388 26.5865 239.337 26.7523C239.287 26.9181 239.202 27.0713 239.087 27.2015C238.972 27.3316 238.832 27.436 238.674 27.5073C238.515 27.5789 238.343 27.6157 238.17 27.6157C237.997 27.6157 237.825 27.5789 237.667 27.5073C237.51 27.436 237.368 27.3316 237.254 27.2015C237.14 27.0713 237.055 26.9181 237.003 26.7523C236.954 26.5865 236.938 26.4118 236.96 26.24C236.958 26.0796 236.987 25.9205 237.045 25.7715C237.105 25.6225 237.192 25.4865 237.303 25.3713C237.415 25.2561 237.548 25.1641 237.695 25.1003C237.842 25.0366 238 25.0025 238.16 25ZM200.56 80.18C200.417 80.1538 200.288 80.0786 200.195 79.9673C200.102 79.8557 200.052 79.7153 200.052 79.5698C200.052 79.4248 200.102 79.284 200.195 79.1728C200.288 79.0611 200.417 78.9858 200.56 78.96C200.727 78.96 200.888 79.0262 201.005 79.1444C201.123 79.2626 201.19 79.4229 201.19 79.5898C201.19 79.7571 201.123 79.9175 201.005 80.0353C200.888 80.1535 200.727 80.22 200.56 80.22V80.18ZM195.12 25.24C195.12 24.44 197.12 24.04 198 23.92C199.454 23.7278 200.927 23.7278 202.38 23.92C203.282 22.2656 204.39 20.7331 205.68 19.36C206.1 19.02 206.48 18.9 206.86 19.36C207.765 21.1865 208.347 23.1553 208.58 25.18C211.68 25.98 216 27.46 213.4 29.32C212.6 29.9 211.18 30.5 209.64 31.32C209.814 32.9338 209.867 34.5582 209.8 36.18C209.8 36.92 209.6 38.04 208.86 38.18C207.36 38.44 206.2 36.36 203.84 34.32C201.58 35.44 197.06 37.92 196.96 35.54C197.205 33.5098 197.808 31.5393 198.74 29.72C196.44 27.54 194.98 26.48 195.12 25.28V25.24ZM193.12 62.02C193.115 63.416 192.752 64.7873 192.062 66.0011C191.374 67.2153 190.383 68.2313 189.187 68.9513C187.99 69.6709 186.628 70.0698 185.234 70.1102C183.838 70.1502 182.455 69.8298 181.22 69.18L192.86 59.94C193.038 60.6328 193.134 61.3444 193.14 62.06L193.12 62.02ZM192.62 59.2C189.42 61.66 185.12 65.2 180.82 68.94C180.497 68.7448 180.188 68.524 179.9 68.28C184.08 64.06 188.18 59.3 190.72 56.28C191.557 57.1244 192.21 58.132 192.64 59.24L192.62 59.2ZM190.28 55.86C189.48 56.72 182.52 64.56 179.52 67.86C178.667 67.0757 177.985 66.1222 177.52 65.06C180.56 62.86 184.7 59.8 189.3 56.18L190.02 55.6L190.28 55.86ZM185.02 53.86C186.625 53.8582 188.194 54.3389 189.52 55.24L186.7 57.24C186.06 57.72 181.2 61.54 177.36 64.54C176.954 63.3211 176.84 62.0229 177.03 60.7517C177.222 59.4808 177.71 58.2731 178.458 57.2273C179.205 56.1815 180.188 55.3277 181.33 54.7353C182.47 54.1433 183.735 53.8295 185.02 53.82V53.86ZM165.74 50.58C165.983 50.572 166.223 50.6368 166.428 50.7659C166.635 50.8949 166.797 51.0826 166.895 51.3048C166.994 51.5269 167.023 51.7731 166.982 52.0124C166.938 52.2517 166.827 52.4728 166.657 52.6473C166.488 52.8222 166.272 52.9422 166.034 52.9928C165.795 53.0433 165.548 53.0215 165.323 52.9302C165.098 52.8393 164.905 52.6833 164.768 52.4815C164.634 52.2804 164.56 52.0429 164.56 51.8C164.58 51.4957 164.717 51.2106 164.938 51.0026C165.162 50.7946 165.455 50.6793 165.76 50.68L165.74 50.58ZM154.72 80.86C155.187 80.8757 155.64 81.0284 156.02 81.2993C156.4 81.5702 156.694 81.9473 156.862 82.3833C157.028 82.8193 157.065 83.2949 156.965 83.7513C156.863 84.2077 156.632 84.624 156.295 84.9491C155.96 85.2738 155.535 85.4928 155.077 85.5782C154.617 85.6637 154.142 85.6124 153.712 85.4298C153.282 85.2477 152.915 84.9429 152.657 84.5535C152.398 84.164 152.26 83.7073 152.26 83.24C152.277 82.5997 152.543 81.9913 153.003 81.5462C153.463 81.1011 154.08 80.8546 154.72 80.86ZM123.6 75.22C124.46 75.22 124.46 76.76 123.6 76.76C122.74 76.76 122.72 75.22 123.6 75.22ZM42.2601 119.44C42.1656 119.457 42.0681 119.452 41.975 119.427C41.8819 119.403 41.7954 119.357 41.7216 119.295C41.6477 119.233 41.5885 119.156 41.5477 119.069C41.507 118.981 41.4859 118.886 41.4859 118.79C41.4859 118.693 41.507 118.598 41.5477 118.511C41.5885 118.424 41.6477 118.346 41.7216 118.284C41.7954 118.223 41.8819 118.177 41.975 118.152C42.0681 118.127 42.1656 118.123 42.2601 118.14C42.3554 118.123 42.4525 118.127 42.5459 118.152C42.6386 118.177 42.7252 118.223 42.799 118.284C42.8728 118.346 42.9321 118.424 42.9728 118.511C43.0139 118.598 43.0346 118.693 43.0346 118.79C43.0346 118.886 43.0139 118.981 42.9728 119.069C42.9321 119.156 42.8728 119.233 42.799 119.295C42.7252 119.357 42.6386 119.403 42.5459 119.427C42.4525 119.452 42.3554 119.457 42.2601 119.44ZM85.2601 197.96C84.9917 197.928 84.7376 197.821 84.5288 197.648C84.3205 197.477 84.1663 197.247 84.0848 196.99C84.0037 196.732 83.999 196.455 84.0714 196.195C84.1437 195.933 84.2903 195.7 84.4928 195.52C84.6954 195.341 84.9456 195.225 85.2132 195.185C85.4808 195.145 85.7543 195.183 86.0005 195.295C86.2466 195.407 86.455 195.588 86.6005 195.817C86.7463 196.043 86.8223 196.31 86.8201 196.58C86.7947 196.968 86.6161 197.332 86.3241 197.59C86.0321 197.85 85.6499 197.981 85.2601 197.96ZM90.0001 64.2C90.2743 64.196 90.5426 64.2735 90.7725 64.4226C91.0019 64.572 91.1819 64.7858 91.2896 65.0378C91.3968 65.2895 91.4274 65.5677 91.3761 65.8368C91.3252 66.1055 91.1954 66.3535 91.0034 66.5484C90.811 66.7433 90.5652 66.8768 90.2968 66.9317C90.0288 66.9866 89.7503 66.9604 89.4968 66.8568C89.2437 66.7528 89.027 66.576 88.8743 66.3488C88.7219 66.1211 88.6405 65.8535 88.6401 65.58C88.6401 65.2171 88.783 64.8691 89.0376 64.6113C89.2921 64.3528 89.6379 64.2051 90.0001 64.2ZM91.1601 136.02C91.1583 136.215 91.1005 136.406 90.9936 136.569C90.8863 136.733 90.7346 136.862 90.5561 136.941C90.3779 137.021 90.1805 137.048 89.9874 137.019C89.7943 136.989 89.6136 136.905 89.4666 136.776C89.3201 136.647 89.2136 136.479 89.1597 136.291C89.1063 136.103 89.1074 135.904 89.1634 135.717C89.2197 135.53 89.3285 135.363 89.4768 135.236C89.6252 135.108 89.8067 135.027 90.0001 135C90.1408 134.989 90.2819 135.007 90.4154 135.053C90.5485 135.1 90.6706 135.173 90.7739 135.269C90.8772 135.365 90.9597 135.481 91.0157 135.61C91.0721 135.739 91.1008 135.879 91.1001 136.02H91.1601ZM91.6201 165.56C92.8201 164.62 96.3601 161.7 97.4201 162.62C98.4801 163.54 97.5601 165.48 97.4201 168.24C99.6401 169.3 104.24 171.32 102.44 172.6C100.678 173.461 98.7859 174.028 96.8401 174.28C96.5001 177.18 96.5201 178.66 95.5401 179.16C94.8601 179.48 93.3601 178.26 92.8001 177.74C91.7245 176.821 90.7819 175.758 90.0001 174.58C88.1736 174.8 86.327 174.8 84.5001 174.58C84.0201 174.46 83.6601 174.24 83.7601 173.76C83.9801 172.66 86.4601 170.32 87.2801 169.54C86.7601 168.4 85.5401 165.54 85.9601 164.4C86.5601 162.82 89.1401 164.56 91.5601 165.56H91.6201ZM85.1201 101.12C85.5401 101.12 85.7601 101.42 85.7001 101.94C85.2819 103.424 84.6485 104.839 83.8201 106.14C84.6779 107.038 85.411 108.047 86.0001 109.14C88.0001 113 85.2201 112.02 81.1001 111.14C80.1288 112.584 78.8939 113.833 77.4601 114.82C75.6001 115.74 75.1801 111.82 74.8601 109.6C72.0401 108.86 69.8001 108.96 69.2201 107.82C68.6401 106.68 72.9601 104.94 74.2001 104.38C74.0601 102.38 73.2001 99.7 74.9201 99.78C76.6634 100.307 78.2641 101.223 79.6001 102.46C81.3579 101.724 83.2212 101.272 85.1201 101.12ZM59.6401 157C59.4172 157.036 59.1892 157.023 58.9717 156.962C58.7539 156.901 58.5521 156.794 58.3801 156.648C58.2081 156.501 58.0699 156.319 57.975 156.114C57.8805 155.909 57.8314 155.686 57.8314 155.46C57.8314 155.234 57.8805 155.011 57.975 154.805C58.0699 154.601 58.2081 154.419 58.3801 154.272C58.5521 154.125 58.7539 154.018 58.9717 153.957C59.1892 153.897 59.4172 153.884 59.6401 153.92C59.8634 153.884 60.0917 153.897 60.3092 153.957C60.5266 154.018 60.7285 154.125 60.9005 154.272C61.0725 154.419 61.2106 154.601 61.3056 154.805C61.4001 155.011 61.4492 155.234 61.4492 155.46C61.4492 155.686 61.4001 155.909 61.3056 156.114C61.2106 156.319 61.0725 156.501 60.9005 156.648C60.7285 156.794 60.5266 156.901 60.3092 156.962C60.0917 157.023 59.8634 157.036 59.6401 157ZM48.3601 96.58C48.2866 96.5615 48.2212 96.5193 48.1743 96.4593C48.1277 96.3997 48.1023 96.3258 48.1023 96.2498C48.1023 96.1738 48.1277 96.1 48.1743 96.0404C48.2212 95.9808 48.2866 95.9382 48.3601 95.92C52.7401 95.62 57.7201 95.48 62.1001 95.48C58.4499 92.9197 54.5423 90.7477 50.4401 89C50.3536 88.9731 50.2801 88.9146 50.2343 88.836C50.1888 88.7571 50.175 88.664 50.195 88.5757C50.2154 88.4869 50.2685 88.4091 50.3437 88.3582C50.4186 88.3069 50.5103 88.2862 50.6001 88.3C55.1466 88.3484 59.6186 89.4578 63.6601 91.54C61.0019 88.8909 58.1903 86.3997 55.2401 84.08C55.1772 84.0288 55.1343 83.9564 55.1197 83.8764C55.1052 83.7964 55.1201 83.7138 55.1608 83.6437C55.2023 83.5735 55.267 83.5204 55.3441 83.4942C55.4208 83.4677 55.5048 83.4698 55.5801 83.5C60.6219 85.1255 65.3543 87.5866 69.5801 90.78C73.7521 93.8368 77.3706 97.584 80.2801 101.86C80.2801 102.04 80.1001 102.18 79.9801 102C77.0728 97.7517 73.4608 94.0317 69.3001 91C65.5939 88.2815 61.511 86.1189 57.1801 84.58C58.6401 85.76 64.5601 90.58 65.3401 92.36C65.5001 92.68 65.1001 92.98 64.7601 92.78C62.6245 91.5902 60.3554 90.6571 58.0001 90C56.1652 89.4509 54.2725 89.1153 52.3601 89C54.6601 90.1 61.8001 93.6 63.2601 95.68C63.2979 95.7357 63.3186 95.8008 63.3212 95.8677C63.3237 95.9346 63.3074 96.0011 63.2739 96.0593C63.2408 96.1171 63.1921 96.1651 63.1328 96.1971C63.0739 96.2291 63.0074 96.2437 62.9401 96.24C62.7201 96.24 57.2001 96.24 51.3401 96.44C58.2601 97.76 67.3401 100.3 73.1201 104.44C73.2801 104.56 73.1201 104.8 72.9201 104.68C66.6401 100.3 55.7801 97.58 48.3601 96.58ZM161.6 137.88C168.42 132.74 181.94 131.38 187.86 137.88C189.603 139.58 190.974 141.624 191.883 143.883C192.792 146.143 193.22 148.566 193.14 151C192.674 155.411 190.778 159.548 187.74 162.78C187.38 163.14 187.38 162.78 187.5 162.6C187.845 162.105 188.072 161.54 188.167 160.945C188.262 160.35 188.222 159.741 188.048 159.165C187.875 158.588 187.575 158.058 187.168 157.614C186.762 157.17 186.26 156.823 185.7 156.6C181.92 154.88 180.78 161.22 178.02 162C175.62 162.7 176.52 157.1 176.7 153.36C176.952 151.716 176.574 150.037 175.64 148.66C173.978 146.877 171.925 145.508 169.64 144.66C165.635 143.047 161.287 142.476 157 143C158.17 140.999 159.735 139.257 161.6 137.88ZM156.86 167.7C153.56 159.9 155 149.54 155 149.54C155.162 147.436 155.768 145.391 156.78 143.54C161.102 143.101 165.463 143.79 169.44 145.54C171.603 146.35 173.554 147.643 175.14 149.32C177.14 151.96 175.14 157 175.78 160.94C176.02 162.48 176.74 163.46 178.24 162.94C181.34 162.06 182.38 156.18 185.36 157.54C188.34 158.9 187.8 162.8 184.28 164.28C182.92 164.86 183.04 166.16 184.08 166.28C184.62 166.28 185.68 165.98 187.3 164.68C189.674 162.361 191.538 159.577 192.78 156.5C195.562 157.087 198.252 158.041 200.78 159.34C204.34 160.96 208.54 163.22 211.86 165.16C206.8 166.367 202.188 168.987 198.562 172.717C194.935 176.445 192.445 181.128 191.38 186.22C190.62 186.22 190.68 185.14 190.16 184.74C189.64 184.34 189.32 184.74 188.7 184.94C188.714 184.447 188.603 183.96 188.38 183.52C188.38 182.36 186.48 183.04 185.38 183.4C185.394 182.903 185.318 182.41 185.16 181.94C185.62 180.46 182.94 181.2 181.44 181.62C181.554 181.052 181.554 180.468 181.44 179.9C181.58 178.74 179.04 179.48 177.98 179.9C178.072 179.232 178.03 178.552 177.86 177.9C177.3 177.12 174.34 178.76 174.22 178.02C174.23 177.472 174.338 176.93 174.54 176.42C174.88 175.2 173.22 175.96 172.74 175.88C172.722 175.89 172.702 175.897 172.68 175.897C172.658 175.897 172.638 175.89 172.62 175.88V175.64C174.294 175.181 175.9 174.51 177.4 173.64C178.163 174.763 179.307 175.573 180.62 175.92C181.814 176.275 183.083 176.278 184.278 175.93C185.474 175.58 186.542 174.892 187.355 173.95C188.168 173.008 188.692 171.85 188.863 170.618C189.035 169.385 188.847 168.128 188.32 167C188.32 166.78 187.88 167 187.98 167.14C188.24 167.907 188.34 168.717 188.278 169.523C188.217 170.33 187.992 171.115 187.618 171.833C187.243 172.55 186.728 173.185 186.103 173.698C185.478 174.212 184.757 174.593 183.98 174.82L179.14 171.84C178.96 171.72 178.98 171.84 177.92 172.52C177.255 171.207 177.077 169.701 177.417 168.268C177.758 166.837 178.595 165.573 179.78 164.7C181.178 163.763 182.84 163.3 184.52 163.38C184.56 163.367 184.595 163.341 184.62 163.307C184.645 163.273 184.658 163.232 184.658 163.19C184.658 163.148 184.645 163.107 184.62 163.073C184.595 163.038 184.56 163.013 184.52 163C182.72 162.781 180.897 163.168 179.34 164.1C177.927 165.038 176.912 166.47 176.495 168.115C176.077 169.758 176.285 171.5 177.08 173C173.535 175.017 169.468 175.93 165.4 175.62C163.45 175.072 161.658 174.068 160.174 172.692C158.688 171.313 157.554 169.603 156.86 167.7ZM188 185.46C188.525 185.347 189.037 185.173 189.52 184.94C190.4 184.62 190.16 186.38 191.28 186.4C191.08 187.34 190.96 188.08 190.9 188.54C189.96 188.2 189.08 187.82 188.2 187.46C188.238 186.787 188.172 186.112 188 185.46ZM188 185.02C188 185.02 188 184.92 188.2 184.24C188.25 184.492 188.352 184.73 188.5 184.94L188 185V185.02ZM187.8 185.4C187.698 186.063 187.698 186.737 187.8 187.4C186.4 186.82 185.1 186.22 183.8 185.62C183.8 185.241 183.725 184.868 183.58 184.52C184.5 184.52 187.58 183.04 187.72 183.48C187.86 183.92 187.14 185 187.8 185.4ZM183.38 184.38C183.377 184.692 183.423 185.003 183.52 185.3C183 185.06 180.86 183.98 180.32 183.7C180.31 183.273 180.243 182.848 180.12 182.44C181.318 182.275 182.503 182.013 183.66 181.66C183.8 181.66 184.7 181.54 184.62 181.66C184.54 182.24 182.5 183.92 183.38 184.38ZM179.88 183.46C178.86 182.92 177.88 182.4 177.12 181.92C177.134 181.495 177.058 181.073 176.9 180.68C177.223 180.735 177.554 180.678 177.84 180.52C178.76 180.101 179.752 179.863 180.76 179.82C180.337 180.308 179.975 180.845 179.68 181.42C179.602 182.107 179.67 182.801 179.88 183.46ZM176.66 181.66L174.44 180.32C174.485 179.727 174.425 179.132 174.26 178.56C174.9 178.7 176.56 178.04 177.32 178.1C176.958 178.59 176.632 179.105 176.34 179.64C176.34 180.327 176.448 181.008 176.66 181.66ZM177.52 178.76C177.47 179.158 177.47 179.561 177.52 179.96C177.38 179.96 176.92 180.18 176.88 179.96C176.84 179.74 177.28 179 177.52 178.76ZM181.04 180.48C181.028 180.872 181.075 181.263 181.18 181.64C180.874 181.753 180.548 181.815 180.22 181.82C180.22 181.82 180.14 181.54 181.04 180.48ZM184.88 182.48C184.907 182.808 184.98 183.132 185.1 183.44C184.702 183.592 184.295 183.718 183.88 183.82C184.12 183.46 184.44 183 184.88 182.46V182.48ZM173.86 178.32C173.85 178.92 173.925 179.52 174.08 180.1C173.74 179.892 173.405 179.672 173.08 179.44L172.62 176.08C173.12 176.08 174.16 175.78 174.16 176.08C174.16 176.38 173.32 177.7 173.86 178.3V178.32ZM178.14 172.92C178.42 172.74 178.72 172.52 179 172.3L183.4 175C182.423 175.197 181.412 175.113 180.482 174.758C179.552 174.405 178.74 173.795 178.14 173V172.92ZM156.72 190.68C156.24 190.54 159 186.26 159.32 185.76C160.3 184.18 165.04 176.86 165.44 176.26C167.094 176.357 168.752 176.257 170.38 175.96C170.7 187.8 172.84 192.72 175.44 197.34C174.1 196.92 172.74 197.54 171.56 197.12C169.9 196.56 169.96 194.16 167.56 194.02C165.992 194.205 164.483 194.73 163.14 195.56C162.6 195.78 162.48 195.56 162.34 195.32C162.142 193.967 161.848 192.63 161.46 191.32C160.54 189.74 157.66 191 156.72 190.68ZM106.86 248.12L116.3 253.82C115.75 254.34 115.155 254.808 114.52 255.22C112.98 256.04 111.38 255.42 111.36 256.64C102.74 259.94 89.7601 275.16 105.94 289.06C126.62 306.8 150.16 313.88 128.26 330.8C122.26 335.5 116.08 334.8 108.94 330.18C101.1 325.04 101.18 302.4 93.6601 288.42C81.1601 265.16 76.0001 273 51.8401 255.52L106.86 248.12ZM134.64 332.12C134.614 332.12 134.588 332.115 134.563 332.105C134.54 332.095 134.517 332.08 134.498 332.061C134.48 332.043 134.465 332.02 134.455 331.997C134.445 331.972 134.44 331.947 134.44 331.92C134.44 331.893 134.445 331.868 134.455 331.843C134.465 331.818 134.48 331.797 134.498 331.778C134.517 331.76 134.54 331.745 134.563 331.735C134.588 331.725 134.614 331.72 134.64 331.72C134.68 331.733 134.715 331.758 134.74 331.793C134.765 331.827 134.778 331.868 134.778 331.91C134.778 331.952 134.765 331.993 134.74 332.027C134.715 332.061 134.68 332.087 134.64 332.1V332.12ZM124.4 338.12C124.316 338.135 124.23 338.133 124.148 338.112C124.065 338.09 123.988 338.05 123.923 337.997C123.857 337.941 123.804 337.873 123.768 337.797C123.732 337.72 123.713 337.635 123.713 337.55C123.713 337.465 123.732 337.38 123.768 337.303C123.804 337.227 123.857 337.158 123.923 337.103C123.988 337.048 124.065 337.01 124.148 336.988C124.23 336.967 124.316 336.965 124.4 336.98C124.562 336.98 124.717 337.045 124.832 337.158C124.946 337.273 125.01 337.428 125.01 337.59C125.01 337.752 124.946 337.907 124.832 338.021C124.717 338.135 124.562 338.2 124.4 338.2V338.12ZM98.6401 336.72C98.8452 336.127 99.1496 335.572 99.5401 335.08C98.6401 333.84 98.1005 333.22 99.6605 333.3C100.118 333.333 100.568 333.428 101 333.58C102.6 331.82 102.88 331.94 102.82 334.34C103.22 334.54 104.16 335.02 104.34 335.42C104.52 335.82 103.5 336.06 102.78 336.28C102.78 336.76 102.6 338.28 102.14 338.28C101.68 338.28 101.42 337.54 100.82 336.78C100 337 98.5401 337.52 98.6401 336.8V336.72ZM98.3801 311.24C98.2965 311.255 98.2103 311.253 98.1277 311.232C98.0452 311.21 97.9685 311.17 97.9026 311.117C97.8372 311.061 97.7845 310.993 97.7481 310.917C97.7121 310.84 97.6932 310.755 97.6932 310.67C97.6932 310.585 97.7121 310.5 97.7481 310.423C97.7845 310.347 97.8372 310.278 97.9026 310.223C97.9685 310.168 98.0452 310.13 98.1277 310.108C98.2103 310.087 98.2965 310.085 98.3801 310.1C98.5423 310.1 98.6972 310.165 98.8117 310.278C98.9263 310.393 98.9903 310.548 98.9903 310.71C98.9903 310.872 98.9263 311.027 98.8117 311.141C98.6972 311.255 98.5423 311.32 98.3801 311.32V311.24ZM74.2201 282.24C74.1365 282.255 74.0503 282.253 73.9677 282.232C73.8852 282.21 73.8085 282.17 73.7426 282.117C73.6772 282.061 73.6245 281.993 73.5881 281.917C73.5521 281.84 73.5332 281.755 73.5332 281.67C73.5332 281.585 73.5521 281.5 73.5881 281.423C73.6245 281.347 73.6772 281.278 73.7426 281.223C73.8085 281.168 73.8852 281.13 73.9677 281.108C74.0503 281.087 74.1365 281.085 74.2201 281.1C74.3041 281.085 74.3903 281.087 74.4728 281.108C74.5554 281.13 74.6321 281.168 74.6979 281.223C74.7634 281.278 74.8161 281.347 74.8525 281.423C74.8888 281.5 74.9077 281.585 74.9077 281.67C74.9077 281.755 74.8888 281.84 74.8525 281.917C74.8161 281.993 74.7634 282.061 74.6979 282.117C74.6321 282.17 74.5554 282.21 74.4728 282.232C74.3903 282.253 74.3041 282.255 74.2201 282.24ZM66.2201 269.76C66.1365 269.775 66.0503 269.773 65.9677 269.752C65.8852 269.73 65.8085 269.69 65.7426 269.637C65.6772 269.581 65.6245 269.513 65.5881 269.437C65.5521 269.36 65.5332 269.275 65.5332 269.19C65.5332 269.105 65.5521 269.02 65.5881 268.943C65.6245 268.867 65.6772 268.798 65.7426 268.743C65.8085 268.688 65.8852 268.65 65.9677 268.628C66.0503 268.607 66.1365 268.603 66.2201 268.62C66.303 268.6 66.3888 268.6 66.4721 268.617C66.555 268.635 66.6332 268.67 66.7012 268.72C66.7692 268.772 66.8248 268.837 66.8648 268.912C66.9048 268.987 66.9281 269.07 66.9325 269.153C66.9368 269.238 66.9226 269.323 66.8906 269.401C66.859 269.481 66.8099 269.552 66.7481 269.61C66.6859 269.667 66.6117 269.71 66.531 269.737C66.4503 269.763 66.3645 269.77 66.2801 269.76H66.2201ZM42.7601 265.76C42.8441 265.745 42.9303 265.747 43.0128 265.768C43.0954 265.79 43.1721 265.828 43.2379 265.883C43.3034 265.938 43.3561 266.007 43.3925 266.083C43.4288 266.16 43.4477 266.245 43.4477 266.33C43.4477 266.415 43.4288 266.5 43.3925 266.577C43.3561 266.653 43.3034 266.721 43.2379 266.777C43.1721 266.83 43.0954 266.87 43.0128 266.892C42.9303 266.913 42.8441 266.915 42.7601 266.9C42.6761 266.91 42.5906 266.903 42.5099 266.877C42.4288 266.85 42.355 266.807 42.2928 266.75C42.2306 266.692 42.1819 266.621 42.1499 266.541C42.1183 266.463 42.1041 266.378 42.1081 266.293C42.1128 266.21 42.1357 266.127 42.1757 266.052C42.2157 265.977 42.2717 265.912 42.3394 265.86C42.4074 265.81 42.4856 265.775 42.5688 265.757C42.6517 265.74 42.7379 265.74 42.8201 265.76H42.7601ZM29.5801 225.76C30.4074 225.093 31.3499 224.585 32.3601 224.26C32.3601 221.66 32.1601 220.26 34.2201 221.8C34.8219 222.29 35.3597 222.855 35.8201 223.48C36.7488 223.198 37.7106 223.045 38.6801 223.02C38.9601 223.02 39.1401 223.18 39.1201 223.46C38.7786 224.492 38.2645 225.458 37.6001 226.32C38.1772 227.217 38.5336 228.238 38.6401 229.3C38.4601 230.28 36.9201 229.42 35.6801 229.06C35.1401 229.7 33.4801 231.82 32.8601 231.34C32.2401 230.86 32.5801 229.62 32.5001 227.94C31.2801 227.5 28.8001 226.7 29.6401 225.76H29.5801ZM22.2201 243.4C22.3041 243.383 22.3903 243.387 22.4728 243.408C22.5554 243.43 22.6321 243.468 22.6979 243.523C22.7634 243.578 22.8161 243.647 22.8525 243.723C22.8888 243.8 22.9077 243.885 22.9077 243.97C22.9077 244.055 22.8888 244.14 22.8525 244.217C22.8161 244.293 22.7634 244.361 22.6979 244.417C22.6321 244.47 22.5554 244.51 22.4728 244.532C22.3903 244.553 22.3041 244.555 22.2201 244.54C22.1361 244.55 22.0506 244.543 21.9699 244.517C21.8888 244.49 21.815 244.447 21.7528 244.39C21.6906 244.332 21.6419 244.261 21.6099 244.181C21.5783 244.103 21.5641 244.018 21.5681 243.933C21.5728 243.85 21.5957 243.767 21.6357 243.692C21.6757 243.617 21.7317 243.552 21.7994 243.5C21.8674 243.45 21.9456 243.415 22.0288 243.397C22.1117 243.38 22.1979 243.38 22.2801 243.4H22.2201ZM215.12 309.82C207.8 319.36 98.5001 372.4 87.8601 377.538C62.8801 347.88 24.0001 293.8 1.2001 262.24L21.8001 259.54C34.6401 279.8 54.3201 275.1 64.8801 281.54C76.7601 288.8 82.8801 294.28 86.4801 308.36C91.3801 327.5 85.2005 335.76 99.5205 341.86C113.24 347.68 140.48 345.34 151.52 326.4C162.56 307.46 140.94 299.18 121.52 290.4C102.1 281.62 105.52 269.46 108.16 266.02C110.176 263.403 112.515 261.05 115.12 259.02C116.106 259.023 117.075 258.768 117.931 258.28C118.787 257.793 119.5 257.09 120 256.24C122.34 257.5 211.1 307.52 215.18 309.82H215.12ZM141.12 333.4C141.147 333.4 141.172 333.405 141.197 333.415C141.222 333.425 141.243 333.44 141.262 333.458C141.28 333.477 141.295 333.498 141.305 333.523C141.315 333.548 141.32 333.573 141.32 333.6C141.32 333.627 141.315 333.652 141.305 333.677C141.295 333.7 141.28 333.723 141.262 333.741C141.243 333.76 141.222 333.775 141.197 333.785C141.172 333.795 141.147 333.8 141.12 333.8C141.094 333.798 141.068 333.792 141.045 333.781C141.02 333.77 141 333.753 140.982 333.735C140.963 333.715 140.95 333.692 140.942 333.667C140.934 333.641 140.928 333.617 140.93 333.59C140.932 333.563 140.938 333.538 140.95 333.513C140.96 333.49 140.977 333.468 140.997 333.452C141.015 333.433 141.038 333.42 141.063 333.412C141.088 333.403 141.114 333.398 141.14 333.4H141.12ZM146.24 313.14C146 313.3 145.64 313.14 145.08 312.86C144.2 313.84 143.78 314.12 143.88 312.46C143.02 312.18 142.54 312.04 143.34 311.58C143.58 311.45 143.835 311.348 144.1 311.28C144.32 309.9 144.5 309.88 145.26 311.04C145.628 310.95 146.012 310.95 146.38 311.04C146.66 311.2 146.2 311.58 145.88 311.96C146 312.24 146.48 313 146.26 313.14H146.24ZM116.72 257.82C115.949 258.075 115.121 258.107 114.332 257.912C113.543 257.717 112.825 257.305 112.26 256.72H112.44C116.22 256.14 115.66 254.58 117.62 253.62C117.8 253.82 117.62 253.76 120.8 254C119.997 255.761 118.531 257.135 116.72 257.82ZM121.34 249.82C121.051 250.358 120.939 250.975 121.02 251.58C121.02 251.72 120.88 252.36 120.8 252.96L118.64 252.78C118.64 252.68 120.06 249.3 120.16 248.98H121.52L121.34 249.82ZM120.94 244.2C119.56 246.78 118.94 251.58 117.72 250.74C117.294 250.298 117.051 249.713 117.04 249.1C116.976 247.947 117.139 246.792 117.52 245.7C117.847 244.555 118.42 243.495 119.202 242.597C119.983 241.698 120.952 240.981 122.04 240.5C120.98 244.58 121.28 243.66 120.94 244.28V244.2ZM122.38 247.22C122.7 246.28 123.14 244.9 123.76 243.1C124.02 242.96 124.08 243.1 124.42 243.94C124.96 245.34 121.8 248.9 121.8 248.9C122 248.32 122.22 247.76 122.38 247.3V247.22ZM178.86 212.56C171.8 223.18 166.56 227.94 158.32 232.56C150.288 236.833 141.747 240.072 132.9 242.2C129.34 243.3 126.36 251.2 122.46 251.56C122.02 251.56 121.72 251.56 122.08 250.56C122.98 248.06 126.24 245.98 125.3 243.6C125.181 243.241 125.02 242.9 124.82 242.58C124.658 242.318 124.411 242.12 124.12 242.02C124.24 241.62 124.64 240.46 125.18 238.82C125.64 238.5 125.96 238.4 128.06 237.16C135.1 233 137.86 225.54 143.78 218.56C146.907 214.735 150.557 211.368 154.62 208.56C154.92 208.38 154.42 208.68 156.74 201.36C158.08 197.14 159.64 192.68 160.1 191.36C160.187 191.372 160.27 191.403 160.342 191.452C160.415 191.5 160.477 191.565 160.52 191.64C161.04 192.62 160.94 194.5 161.38 195.64C162.42 198.16 165 194.78 167.38 194.84C169.38 194.84 169.38 197.14 171.38 197.72C172.88 198.16 174.38 197.24 175.78 197.9C177.615 201.018 179.774 203.935 182.22 206.6C181.312 208.723 180.185 210.748 178.86 212.64V212.56ZM191.14 213.2C185.087 208.872 180.027 203.301 176.3 196.86C173.84 192.58 171.56 187.8 170.78 175.8C171.252 175.718 171.72 175.61 172.18 175.48L172.6 179.48C174.803 181.148 177.13 182.645 179.56 183.96C179.56 183.96 177.86 193.58 185.56 205.96C189.26 212.04 191.14 213.28 191.14 213.28V213.2ZM228.32 239C228.68 243.36 224.72 267.16 224.18 270.4C224.148 270.412 224.12 270.43 224.095 270.455C224.072 270.478 224.052 270.508 224.04 270.54C224.3 269.56 219.8 284.7 219.46 289.44C219.46 289.82 219.46 289.64 222.88 292.6C224.04 293.62 228.02 297 228.22 298.18C228.312 298.487 228.312 298.813 228.22 299.12C226.434 297.227 224.302 295.693 221.94 294.6C221.898 294.573 221.847 294.565 221.798 294.577C221.748 294.587 221.707 294.617 221.68 294.66C221.654 294.701 221.645 294.753 221.657 294.801C221.668 294.852 221.698 294.893 221.74 294.92L223.36 296.24C224.98 297.34 226.47 298.621 227.8 300.06C227.6 300.56 227.16 300.6 226.64 300.46C226.64 299.42 222.08 296.9 220.64 296.04C220.42 295.92 220.22 296.24 220.44 296.36C222.448 297.52 224.32 298.901 226.02 300.48C225.38 301.92 223.44 299.86 216.38 296.96C215.108 296.388 213.762 295.997 212.38 295.8C212.287 295.793 212.194 295.817 212.115 295.868C212.035 295.918 211.974 295.992 211.94 296.08C211.76 296.6 212.32 296.58 214.12 298.4C214.503 298.735 214.834 299.127 215.1 299.56C213.902 299.701 212.692 299.418 211.68 298.76C210.878 298.223 210.247 297.472 209.857 296.59C209.467 295.708 209.337 294.733 209.48 293.78C209.82 291.78 211.8 290.76 210.98 288.98C210.16 287.2 208.48 275.64 208.24 273.98C206.02 258.96 206.86 258.64 206.44 258.52C206.44 237.68 207.1 237.6 206.94 236.52C206.94 236.3 202.46 205.54 202.42 205.3C203.74 205.3 204.68 206.76 205.42 207.96C206.5 209.68 207.42 210.8 209.58 210.14C211.74 209.48 213.58 207.66 215.58 206.94C217.58 206.22 218.64 206.94 220.82 207.64C221.66 208.041 222.608 208.155 223.52 207.963C224.43 207.772 225.254 207.285 225.86 206.58C229.34 203.68 227.7 202.96 234.82 205.76C233.44 211.14 230.34 226.34 230.28 226.58C229.017 230.6 228.357 234.785 228.32 239ZM202.18 204.32C200.612 204.887 199.082 205.553 197.6 206.32C197.26 206.32 197.12 206.32 197.02 205.92C196.4 203.06 203.68 169.2 221.82 167.92C230.1 167.36 235.82 182.22 238.32 190.14C239.965 195.173 241.242 200.321 242.14 205.54C242.5 209.16 231.94 202.38 228.9 203.08C227.7 203.36 227.16 204.38 225.44 205.82C223.72 207.26 222.84 207.26 221.32 206.72C219.525 205.737 217.42 205.478 215.44 206C213.32 206.76 211.56 208.54 209.44 209.2C207.64 209.78 207.08 208.54 206.06 206.94C205.04 205.34 204 203.98 202.18 204.24V204.32ZM231.98 223.2C232.82 219.88 234.3 213 235.4 205.8C237.24 206.52 241.26 208.28 242.6 207C242.8 206.787 242.943 206.527 243.02 206.245C243.097 205.961 243.103 205.665 243.04 205.38C242.315 201.158 241.314 196.99 240.04 192.9C237.36 184 231.1 166.9 221.78 167.48C202.86 168.8 195.48 202.94 196.12 206.02C196.138 206.218 196.202 206.408 196.307 206.578C196.41 206.748 196.552 206.892 196.72 206.998C196.888 207.103 197.078 207.17 197.277 207.192C197.474 207.213 197.674 207.188 197.86 207.12C199 206.84 200.62 205.6 202.1 205.26C202.32 208.9 202.74 213.74 203.62 220C200.247 218.673 196.988 217.067 193.88 215.2C187.605 209.105 183.182 201.361 181.12 192.86C180.417 190.078 180.015 187.228 179.92 184.36C183.552 186.388 187.322 188.158 191.2 189.66C191.265 189.685 191.334 189.695 191.403 189.688C191.472 189.681 191.538 189.66 191.597 189.621C191.655 189.585 191.703 189.535 191.74 189.475C191.775 189.417 191.795 189.348 191.8 189.28C192.532 183.63 194.927 178.325 198.68 174.04C202.505 169.801 207.587 166.9 213.18 165.76C213.27 165.745 213.354 165.701 213.418 165.638C213.483 165.573 213.527 165.49 213.542 165.4C213.558 165.31 213.545 165.217 213.505 165.135C213.465 165.052 213.4 164.983 213.32 164.94C209.358 162.653 205.272 160.59 201.08 158.76C198.483 157.553 195.76 156.641 192.96 156.04C193.502 154.548 193.865 152.997 194.04 151.42C198.04 149.72 218.22 152.22 231.82 150.8C233.88 150.672 235.923 150.344 237.92 149.82C250.18 149.48 268.64 164.56 272.04 171.36C275.44 178.16 274.9 186.66 267.36 197.24C260.26 207.14 234.74 221.58 232 223.12L231.98 223.2ZM286.4 263.58C289.18 254.82 284.78 246.62 283.2 244.08L296.44 243.72C298.145 244.728 299.445 246.298 300.12 248.16C301.205 250.948 301.782 253.908 301.82 256.9C297.86 258.68 290.52 262.04 286.4 263.5V263.58ZM302.68 256.36C302.57 253.43 301.892 250.55 300.68 247.88C299.878 245.997 298.47 244.433 296.68 243.44C297.478 242.583 298.445 241.901 299.52 241.44C299.52 242.08 298.74 243.44 299.68 243.58C300.62 243.72 300.72 242.8 301.3 242.5C301.54 242.38 302.02 242.36 301.82 242.88C301.62 243.4 301.18 244.18 301.64 244.88C301.978 245.278 302.445 245.547 302.96 245.64C303.08 245.64 302.28 246.2 302.06 246.84C302.008 246.992 302.017 247.157 302.083 247.301C302.15 247.448 302.272 247.561 302.42 247.62C303.1 247.88 304.28 247.2 305.02 247.94C305.32 248.26 305.16 248.56 304.78 248.78C303.86 249.36 303.74 250.04 304.6 250.78C305.032 251.08 305.417 251.445 305.74 251.86C305.112 251.855 304.5 252.06 304 252.44C303.905 252.513 303.828 252.607 303.775 252.713C303.722 252.821 303.694 252.94 303.694 253.06C303.694 253.18 303.722 253.298 303.775 253.405C303.828 253.513 303.905 253.607 304 253.68C304.44 254.06 305.52 254.46 305.76 254.8C304.808 255.435 303.772 255.933 302.68 256.28V256.36ZM326.94 242.52C326.12 245.86 308.12 253.92 306.84 254.52C306.62 253.74 305.36 253.36 304.84 252.98C305.4 252.68 306.52 252.8 306.74 252.1C306.96 251.4 305.4 250.24 305.04 249.78C305.38 249.46 306.6 248.88 306.06 247.78C305.815 247.367 305.445 247.041 305.002 246.85C304.56 246.66 304.07 246.615 303.6 246.72H303.3C303.74 246.16 304.46 245.44 303.8 244.96C303.14 244.48 302.7 244.96 302.36 244.3C304.26 244.54 305.82 244.8 307.02 245.06C307.06 245.065 307.102 245.063 307.14 245.052C307.178 245.04 307.215 245.02 307.245 244.993C307.275 244.967 307.3 244.933 307.315 244.897C307.332 244.86 307.34 244.82 307.34 244.78C307.34 245.58 306.78 240.16 309.62 239.52C310.888 239.387 312.17 239.567 313.352 240.043C314.535 240.521 315.582 241.283 316.4 242.26C316.447 242.318 316.51 242.363 316.58 242.387C316.652 242.412 316.727 242.417 316.8 242.4C317.54 242.26 323.68 241 326.14 241.9C326.42 241.88 327 242.16 326.94 242.44V242.52Z" fill="black"/>
</svg>
