<svg width="50" height="50" viewBox="0 0 50 50" fill="none" xmlns="http://www.w3.org/2000/svg">
<g clip-path="url(#clip0_23_70)">
<path d="M0.322283 24.497C0.322283 19.8229 0.334922 15.1482 0.314247 10.475C0.308551 9.14668 0.192317 7.81914 0.151178 6.49057C0.0431611 2.98217 2.46322 0.407196 6.2206 0.333666C14.0525 0.180306 21.8835 -0.154175 29.72 0.111581C30.5494 0.139732 31.3821 0.0819554 32.2107 0.1183C32.7129 0.138073 33.211 0.219513 33.6932 0.360748C33.9044 0.421656 34.0905 0.548721 34.2238 0.723112C34.357 0.897502 34.4302 1.10993 34.4327 1.329C34.4639 1.80442 34.292 2.2261 33.8631 2.40383C33.3335 2.62046 32.7791 2.77055 32.2126 2.85067C31.7091 2.8982 31.2025 2.89916 30.6989 2.85359C24.1658 2.5746 17.6297 2.60738 11.0947 2.72481C9.3301 2.76549 7.56923 2.90492 5.82039 3.14246C4.72588 3.28553 3.72438 3.77715 3.30033 4.92567C3.10976 5.38759 3.00647 5.88057 2.99566 6.37983C3.04545 8.28194 3.16195 10.1824 3.25583 12.0834C3.28769 12.7297 3.35054 13.3752 3.35771 14.0215C3.42396 19.9177 3.51299 25.814 3.52923 31.7106C3.53936 35.3774 3.41655 39.0442 3.39588 42.7115C3.4206 43.6795 3.49809 44.6457 3.62796 45.6056C3.69547 46.2543 4.0575 46.6509 4.7383 46.719C4.95349 46.74 5.16634 46.8136 5.38026 46.8138C7.39925 46.8152 9.41887 46.8386 11.437 46.7928C13.9993 46.7341 16.5598 46.5549 19.122 46.5373C25.369 46.4953 31.6164 46.5003 37.8635 46.518C39.6316 46.523 41.3994 46.6398 43.1675 46.697C43.8207 46.7402 44.4696 46.5625 45.0086 46.1928C45.5479 45.8228 45.9458 45.2823 46.138 44.6591C46.2156 44.4238 46.254 44.1774 46.2521 43.9299C46.228 42.0274 46.0673 40.1184 46.177 38.2245C46.558 31.6503 46.5553 25.072 46.5532 18.4923C46.5532 17.8093 46.5629 17.1254 46.6029 16.4439C46.6207 16.0489 46.6837 15.6572 46.7911 15.2765C46.8472 15.0652 46.9681 14.8766 47.1371 14.737C47.3059 14.5974 47.5143 14.5138 47.7333 14.4977C48.2416 14.4389 48.7095 14.5683 48.9268 15.044C49.1447 15.4942 49.2825 15.9787 49.3342 16.4759C49.4939 18.6618 49.6044 20.8515 49.7268 23.0402C50.1101 29.91 49.7188 36.7705 49.5158 43.6333C49.4797 44.3505 49.3458 45.0596 49.1175 45.7409C48.9099 46.4518 48.5375 47.1045 48.0306 47.6463C47.5238 48.1881 46.8962 48.6039 46.1987 48.8604C44.8508 49.3818 43.4158 49.643 41.97 49.6299C37.3129 49.6182 32.6555 49.6329 27.9983 49.6272C26.2291 49.6251 24.4593 49.5547 22.6911 49.5852C18.5047 49.6594 14.3193 49.7852 10.1332 49.8709C8.43704 49.9056 6.73788 49.9446 5.04358 49.885C2.35054 49.79 0.642093 48.0222 0.60665 45.3077C0.515721 38.3711 0.455582 31.4341 0.383008 24.4974L0.322283 24.497Z" fill="black"/>
<path d="M19.8312 29.8604C19.8674 29.5467 19.9325 29.2368 20.0255 28.9349C20.5624 27.4513 21.1015 25.9673 21.7028 24.5089C21.9355 23.982 22.2479 23.4936 22.6291 23.0608C28.7741 15.8031 35.0186 8.63434 41.8011 1.95051C42.0779 1.66712 42.373 1.40192 42.6844 1.15659C43.5663 0.488734 44.4842 0.467561 45.3673 1.13941C45.9051 1.56254 46.4152 2.01942 46.8947 2.50726C47.7407 3.34108 48.5582 4.20304 49.3945 5.04652C50.1397 5.79799 49.9618 6.74423 49.3878 7.37028C48.926 7.87449 48.43 8.34715 47.9414 8.82615C42.2559 14.4011 36.5146 19.9213 30.916 25.5818C29.3224 27.2293 27.4933 28.6335 25.488 29.749C24.5087 30.2841 23.5015 30.7688 22.5009 31.2644C22.2433 31.3948 21.9726 31.498 21.6937 31.5726C20.4837 31.8829 19.7919 31.3305 19.8312 29.8604ZM27.5878 25.5854L42.3295 10.3915L40.0954 7.06018C35.0365 12.4829 30.0585 17.8186 25.0063 23.2343C25.912 24.0597 26.7768 24.8476 27.5869 25.5854H27.5878ZM41.9226 5.38581L44.6082 8.08331L46.6831 6.24862C45.7878 5.20388 44.9631 4.24129 44.1038 3.23814L41.9226 5.38581ZM23.7057 25.3776C23.4342 26.0053 23.2319 26.4732 23.0325 26.9345L23.85 27.8434L25.0973 27.1196L23.7057 25.3776Z" fill="black"/>
</g>
<defs>
<clipPath id="clip0_23_70">
<rect width="50" height="50" fill="white"/>
</clipPath>
</defs>
</svg>
