<svg width="50" height="50" viewBox="0 0 50 50" fill="none" xmlns="http://www.w3.org/2000/svg">
<g clip-path="url(#clip0_20_116)">
<path d="M47.4533 20.0694C46.9068 20.0796 46.3671 20.0766 45.9337 20.0739L45.6458 20.0725L42.9102 14.9187C43.0722 14.728 43.2418 14.5331 43.4151 14.3335C43.9228 13.7495 44.4475 13.1452 44.9333 12.4934C45.545 11.6732 45.4944 10.7236 44.8015 10.0156L44.7574 9.97047C43.0252 8.19986 41.2337 6.36903 39.391 4.6529C38.8675 4.16535 38.4056 3.94872 37.9436 3.96872C37.4554 3.99056 36.972 4.28562 36.4232 4.89664C36.026 5.33847 35.6422 5.78051 35.2357 6.24868C35.1029 6.40203 34.9683 6.55682 34.8323 6.71315C33.6197 5.47703 32.1007 4.73884 29.9578 4.3417C29.9578 4.2168 29.9602 4.09315 29.9618 3.9707C29.9669 3.5756 29.9717 3.20258 29.9529 2.82135C29.8436 0.623185 29.2262 0.0211203 27.0798 0.0205078H27.0624C25.7187 0.0205078 24.3545 0.0682503 23.0355 0.114577C22.408 0.136414 21.7823 0.158619 21.1556 0.175761C20.192 0.202292 19.6008 0.736787 19.4911 1.68066C19.4195 2.29821 19.3725 2.91503 19.331 3.45931C19.3178 3.63339 19.3053 3.79964 19.2927 3.95515L14.447 6.71604C14.3476 6.5936 14.2462 6.46725 14.1434 6.33847C13.8088 5.92154 13.4628 5.49009 13.0883 5.07172C12.5529 4.47335 12.0357 4.17094 11.5067 4.14768C10.9913 4.12829 10.4719 4.36541 9.91948 4.88378C8.34337 6.36276 6.83952 7.8407 5.45005 9.27662C4.3126 10.4515 4.25833 11.4399 5.25671 12.8044C5.61258 13.2901 6.00873 13.7493 6.32695 14.1183C6.41967 14.2258 6.50651 14.3262 6.58505 14.419L4.42392 20.2762C4.19983 20.2966 3.9723 20.3152 3.74254 20.334C3.11197 20.3858 2.45997 20.4394 1.81159 20.5271C0.630012 20.6867 0.169883 21.2094 0.170288 22.3906C0.170288 24.6702 0.194171 26.5677 0.242148 28.3622C0.259961 29.0298 0.445787 29.5237 0.794775 29.8298C1.1551 30.1461 1.66705 30.262 2.3622 30.183C2.75309 30.1392 3.14276 30.0879 3.53264 30.0365L3.63487 30.0228C3.63732 30.0453 3.64327 30.0671 3.65248 30.0877L6.09641 35.4537C5.78183 35.6969 5.46671 35.9392 5.15106 36.1806C4.80639 36.4451 4.46226 36.71 4.11867 36.9753C3.1128 37.7549 2.92574 38.6437 3.56238 39.6173C4.6057 41.212 5.83244 43.0543 7.19216 44.7361C8.3958 46.2259 9.3721 46.3322 11.0608 45.161C11.7636 44.6732 12.463 44.1814 13.1677 43.6849L13.9932 43.1043C15.8316 44.5755 17.665 45.2471 19.7003 45.2171C19.6816 45.3908 19.6634 45.5559 19.6458 45.7149C19.5932 46.1896 19.5476 46.5998 19.5191 47.0186C19.445 48.1141 19.5913 48.7941 19.9934 49.2255C20.3853 49.6453 21.0246 49.8339 22.061 49.8339H22.1278C23.5327 49.8232 24.9606 49.7983 26.3414 49.7745C26.9114 49.7643 27.4813 49.7547 28.0513 49.7455C28.8462 49.7328 29.4076 49.5318 29.7691 49.1306C30.1307 48.7294 30.2752 48.1457 30.2092 47.3471C30.1647 46.7981 30.1151 46.2496 30.0703 45.7565L30.0298 45.3104L34.274 43.5085L34.3618 43.6294C34.5193 43.8457 34.6796 44.0657 34.8379 44.2871C34.9171 44.3977 34.9942 44.51 35.0713 44.6222C35.2098 44.8237 35.3531 45.0322 35.5076 45.2304C36.2679 46.2061 37.1054 46.413 38.2234 45.9026C38.5916 45.7471 38.9381 45.543 39.2535 45.2961C39.6155 44.9928 39.9778 44.69 40.341 44.3875C41.8211 43.1526 43.3517 41.8757 44.8062 40.5594C45.4681 39.9602 45.7722 39.4585 45.7926 38.9326C45.8128 38.3965 45.5294 37.8473 44.8736 37.1524C44.3946 36.6455 43.9114 36.1428 43.4677 35.6814L43.0224 35.2173L45.8246 29.8277C45.9386 29.8167 46.0628 29.8051 46.195 29.7928C46.6373 29.752 47.1869 29.7004 47.7296 29.6357C48.8869 29.4979 49.2989 29.1169 49.5665 27.9377C50.1112 25.5375 49.6879 23.1951 49.259 21.4226C49.0406 20.5194 48.4151 20.0586 47.4533 20.0694ZM42.6473 28.409C42.0566 30.813 41.2224 32.4886 39.942 33.8416C39.423 34.3902 39.4418 35.1588 39.9938 35.9502C40.495 36.6688 41.0177 37.3659 41.5711 38.1043C41.7677 38.3667 41.9679 38.6337 42.1715 38.9079L37.3879 42.7404C37.2547 42.5804 37.124 42.4224 36.996 42.2665C36.6199 41.811 36.2649 41.3808 35.89 40.9579C34.8922 39.8328 34.3687 39.879 33.0875 40.6208C32.0711 41.1869 31.0007 41.6479 29.8924 41.9971C27.3489 42.8522 27.1576 43.9947 27.1448 45.7751C27.1432 46.0008 27.128 46.2339 27.1118 46.4806C27.1076 46.543 27.1035 46.6067 27.0995 46.672H22.3829L22.3572 46.1008C22.3335 45.5686 22.3106 45.0571 22.2849 44.5461C22.2122 43.113 21.9118 42.5943 20.3691 42.5381C18.0581 42.4543 16.1142 41.7724 14.4259 40.4535C13.7836 39.951 13.0403 39.993 12.1533 40.581C11.4919 41.0196 10.8411 41.4724 10.1519 41.9522C9.8991 42.1283 9.64011 42.3083 9.37493 42.492L6.35997 38.4153C6.54647 38.2577 6.73054 38.101 6.91218 37.9451C7.43485 37.4981 7.92819 37.0759 8.44762 36.6739C9.30471 36.0108 9.37576 35.6214 8.81058 34.6888C7.78548 32.9969 6.72677 30.9475 6.646 28.5745C6.61807 27.7432 6.13426 27.3067 5.20876 27.2767C4.66442 27.259 4.11564 27.2628 3.53244 27.2665C3.32576 27.2679 3.11339 27.2696 2.89315 27.2702L2.6877 23.2767C2.98608 23.2451 3.27475 23.212 3.55592 23.18C4.30491 23.0943 5.01341 23.0137 5.71584 22.9808C6.58325 22.94 7.09072 22.4751 7.22432 21.5969C7.6138 19.0393 8.33224 17.0572 9.48507 15.3584C9.67349 15.1171 9.77705 14.8196 9.77954 14.5125C9.78203 14.2054 9.68331 13.9061 9.49884 13.6617C9.074 13.0411 8.64742 12.4226 8.21908 11.8058L7.82576 11.237L11.6875 7.27437C11.8397 7.42403 11.992 7.57374 12.1444 7.72339C12.5897 8.16156 13.0492 8.61421 13.5097 9.054C14.4134 9.91605 14.6707 9.79807 15.6138 9.16092C16.8061 8.355 18.0818 7.51864 19.4164 6.9268C20.5643 6.41803 21.5908 5.82686 21.542 4.20339C21.5477 3.86047 21.5936 3.51945 21.679 3.18745C21.7066 3.05827 21.7343 2.92562 21.76 2.78847H27.1394C27.1406 2.90011 27.1428 3.0129 27.1448 3.12658C27.1525 3.53209 27.1604 3.95113 27.1313 4.36133C27.0171 5.95868 27.5473 6.63705 29.0222 6.78051C30.5809 6.93235 31.944 7.63074 33.4394 9.04584C34.2349 9.79809 34.6742 9.93964 35.5551 9.23596C36.1422 8.76658 36.6863 8.27131 37.2618 7.74621C37.4592 7.56635 37.6584 7.38578 37.8594 7.20441L41.7165 11.2987C41.6256 11.3948 41.5282 11.4966 41.426 11.6035C41.0296 12.019 40.5801 12.4901 40.1353 12.983C38.945 14.3028 38.9375 14.7993 40.0871 16.1054C41.3051 17.4536 42.1632 19.0919 42.5809 20.8663C42.8139 21.8924 43.3985 22.3914 44.4207 22.4375C44.9114 22.4594 45.4019 22.4863 45.9549 22.5159L46.5954 22.5502L46.823 26.8373H46.2248C45.6916 26.8361 45.2104 26.8357 44.729 26.8396C43.4744 26.8502 42.9294 27.261 42.6473 28.409Z" fill="black"/>
<path d="M26.6464 12.0341C24.6605 11.849 22.6593 12.1337 20.802 12.8656C18.9446 13.5975 17.2823 14.7564 15.9475 16.2501C14.6126 17.7438 13.642 19.531 13.1129 21.4694C12.5839 23.408 12.5109 25.4441 12.8999 27.4159C13.9173 32.2753 16.4163 35.3492 20.5401 36.8133C21.7559 37.2363 23.0346 37.4451 24.3209 37.431C25.3911 37.4223 26.4585 37.3178 27.5107 37.119C34.3124 35.8925 38.0573 31.0794 38.0543 23.5659V23.5612C37.9717 21.2108 37.1945 18.9386 35.8223 17.0365C33.6611 14.1231 30.5741 12.4399 26.6464 12.0341ZM34.8265 26.7231C34.0184 30.7968 31.4697 33.1635 27.0348 33.9584C25.5992 34.2155 23.716 34.4388 21.8824 33.8806C18.6892 32.908 16.7724 30.6443 16.0226 26.9608C15.9053 26.3121 15.8285 25.6565 15.7926 24.9982C15.7696 24.6921 15.7467 24.3876 15.7157 24.0839C15.7101 22.8598 15.9496 21.6472 16.4201 20.5186C16.8905 19.3902 17.5822 18.369 18.4536 17.5165C20.3097 15.7139 22.9172 14.7779 25.7782 14.869C28.8668 14.971 31.3138 16.0909 33.0508 18.1955C34.9318 20.4751 35.5128 23.2649 34.8265 26.7231Z" fill="black"/>
</g>
<defs>
<clipPath id="clip0_20_116">
<rect width="50" height="50" fill="white"/>
</clipPath>
</defs>
</svg>
